<?xml version="1.0" standalone="no"?>
<!DOCTYPE svg PUBLIC "-//W3C//DTD SVG 20010904//EN"
 "http://www.w3.org/TR/2001/REC-SVG-20010904/DTD/svg10.dtd">
<svg version="1.0" xmlns="http://www.w3.org/2000/svg"
 width="959.000000pt" height="948.000000pt" viewBox="0 0 959.000000 948.000000"
 preserveAspectRatio="xMidYMid meet">

<g transform="translate(0.000000,948.000000) scale(0.100000,-0.100000)"
fill="#000000" stroke="none">
<path d="M7709 9092 c105 -104 187 -215 245 -330 23 -45 25 -56 14 -70 -12
-15 -11 -16 5 -3 15 12 17 11 17 -8 0 -11 4 -21 10 -21 5 0 8 -13 6 -30 -2
-16 1 -27 5 -24 5 3 9 -4 9 -15 0 -12 5 -21 10 -21 6 0 10 8 10 18 0 11 5 8
15 -12 8 -15 15 -36 14 -45 0 -11 -3 -9 -9 7 -5 12 -12 22 -15 22 -4 0 -3 -5
1 -12 4 -6 8 -34 9 -62 2 -28 6 -68 10 -88 6 -31 5 -38 -7 -38 -18 0 -27 -75
-29 -230 -1 -52 -4 -99 -6 -104 -9 -15 -23 18 -23 56 0 20 -5 40 -11 44 -9 5
-10 -4 -5 -32 16 -82 17 -101 7 -79 -5 11 -10 31 -11 45 -3 50 -17 -12 -19
-83 -2 -48 2 -72 13 -82 22 -22 26 -19 26 25 0 29 4 40 15 40 22 0 21 -88 -1
-97 -8 -3 -20 -1 -27 6 -15 15 -27 14 -27 -4 0 -8 -4 -15 -10 -15 -5 0 -10 24
-10 54 0 34 -5 56 -12 58 -10 4 -10 10 0 32 6 15 12 45 12 66 0 22 5 40 10 40
6 0 10 20 10 45 0 38 -3 45 -19 45 -14 0 -21 -8 -24 -27 -2 -16 -4 4 -3 42 2
157 -4 286 -14 280 -5 -3 -10 1 -10 9 0 9 5 16 11 16 8 0 9 10 4 33 -5 17 -9
58 -10 90 -1 32 -7 63 -13 69 -14 14 -17 -3 -3 -18 4 -5 5 -36 1 -69 -4 -33
-7 -85 -5 -115 1 -30 1 -44 -2 -30 -2 14 -7 32 -11 40 -4 8 -9 -383 -12 -870
l-5 -885 -28 -57 c-19 -39 -43 -68 -72 -89 -31 -22 -44 -40 -48 -62 -4 -26 -2
-745 2 -769 0 -5 43 -8 95 -8 l94 0 -5 248 c-3 136 -3 274 2 307 7 56 11 63
76 130 42 44 79 93 96 130 l28 60 3 935 c2 649 -1 948 -8 979 -14 54 -88 242
-101 256 -5 5 7 -30 26 -78 20 -49 32 -93 29 -99 -4 -7 -3 -8 4 -4 7 4 12 3
12 -3 0 -17 -14 -20 -27 -6 -8 8 -8 15 -2 17 14 5 -101 217 -169 311 -31 44
-92 113 -136 153 -121 115 -126 106 -7 -14z m188 -799 c-3 -10 -5 -4 -5 12 0
17 2 24 5 18 2 -7 2 -21 0 -30z m159 -210 c-10 -10 -19 5 -10 18 6 11 8 11 12
0 2 -7 1 -15 -2 -18z m4 -33 c0 -5 -5 -10 -11 -10 -5 0 -7 5 -4 10 3 6 8 10
11 10 2 0 4 -4 4 -10z m-40 -66 c0 -8 -5 -12 -10 -9 -6 4 -8 11 -5 16 9 14 15
11 15 -7z m-5 -154 c3 -5 1 -10 -4 -10 -6 0 -11 5 -11 10 0 6 2 10 4 10 3 0 8
-4 11 -10z m-68 -97 c-3 -10 -5 -4 -5 12 0 17 2 24 5 18 2 -7 2 -21 0 -30z"/>
<path d="M4915 9180 c-195 -15 -327 -88 -436 -243 -42 -60 -67 -119 -95 -224
-2 -8 -21 -13 -51 -13 -117 0 -521 -58 -807 -115 -888 -177 -1650 -516 -2190
-974 -310 -263 -648 -664 -772 -916 -98 -200 -46 -368 143 -461 l52 -26 -14
-36 c-7 -20 -27 -68 -45 -107 -177 -389 -285 -799 -319 -1205 -49 -587 2
-1214 136 -1675 127 -436 380 -903 619 -1140 33 -33 57 -68 68 -100 35 -98 52
-130 129 -248 215 -329 514 -634 828 -846 224 -151 557 -295 744 -321 123 -17
5142 -9 5210 9 103 26 152 45 235 90 160 87 294 241 360 414 64 165 61 34 58
2129 l-3 1913 -27 69 c-77 190 -228 331 -433 403 l-80 28 -356 3 -356 3 -7
537 -7 536 28 21 c15 11 47 38 71 59 83 77 77 -6 77 971 l0 870 -23 85 c-39
145 -94 244 -181 330 -84 83 -156 126 -271 161 l-75 23 -1055 2 c-580 1 -1100
-2 -1155 -6z m2200 -195 c187 -49 327 -207 355 -400 6 -42 10 -395 10 -882 l0
-813 -354 0 c-194 0 -367 3 -383 6 -23 4 -41 24 -88 97 -69 107 -225 366 -225
373 0 3 -8 17 -19 32 -20 29 -133 219 -173 292 -14 25 -49 86 -78 135 -87 148
-236 456 -285 588 -10 26 -20 46 -22 43 -4 -4 15 -89 83 -357 89 -354 128
-459 299 -799 91 -183 230 -426 292 -514 17 -25 51 -58 74 -73 l43 -28 343 -3
343 -3 0 -539 0 -540 -324 0 -324 0 -7 88 c-3 48 -10 105 -15 127 -5 22 -14
67 -20 100 -75 382 -305 679 -630 812 -141 58 -326 82 -451 60 l-45 -9 -62 87
c-34 48 -62 90 -62 95 0 5 13 28 29 52 108 161 171 372 171 575 0 257 -97 433
-313 566 -105 64 -180 82 -342 81 -152 0 -200 -12 -307 -75 l-48 -28 0 288 c0
273 1 292 22 346 42 109 157 206 267 225 25 4 528 8 1116 9 932 1 1078 -1
1130 -14z m-2731 -547 c-4 -14 -17 -18 -60 -18 -38 0 -53 3 -48 11 3 6 0 15
-7 20 -11 7 -11 9 -1 9 7 0 10 5 6 12 -5 8 0 9 14 6 12 -4 25 -2 28 4 6 10 -9
9 -169 -7 -97 -10 -218 -25 -243 -29 -16 -3 -50 -9 -77 -12 -26 -4 -50 -11
-53 -16 -4 -7 8 -8 32 -4 22 4 64 9 94 11 30 3 63 8 72 11 10 3 18 1 18 -4 0
-13 -27 -23 -45 -16 -8 4 -15 1 -15 -6 0 -6 -4 -8 -10 -5 -5 3 -8 0 -5 -7 3
-8 -10 -18 -37 -26 -29 -9 -44 -10 -46 -3 -2 6 -20 11 -40 10 l-37 -1 33 -9
c40 -12 42 -23 3 -17 -17 2 -28 2 -26 -2 2 -3 -4 -6 -13 -7 -35 -1 -175 -28
-307 -58 -38 -9 -90 -20 -115 -25 -71 -15 -157 -37 -255 -64 -49 -14 -94 -26
-99 -26 -5 0 -7 -2 -4 -5 3 -3 68 10 144 29 217 54 445 103 609 130 266 44
651 93 661 84 2 -3 7 -76 10 -164 3 -87 10 -179 14 -204 8 -38 5 -50 -14 -80
-33 -51 -79 -152 -118 -257 l-33 -92 -65 -6 c-188 -18 -468 -81 -550 -125 -16
-8 -20 -8 -20 3 0 45 74 217 131 305 26 39 45 72 43 72 -8 0 -303 -160 -369
-200 -173 -106 -496 -330 -552 -383 l-32 -30 19 59 c24 77 60 251 59 284 0 21
-3 19 -19 -18 -49 -109 -143 -208 -400 -422 -41 -35 -97 -81 -125 -104 -27
-22 -67 -57 -89 -76 -22 -19 -56 -48 -76 -65 -50 -42 -293 -285 -316 -316
l-20 -27 -76 37 c-139 68 -327 97 -464 71 -100 -19 -220 -64 -280 -105 -29
-20 -82 -68 -119 -107 -58 -62 -68 -69 -93 -63 -38 9 -80 53 -93 96 -24 79 42
205 245 469 369 480 930 883 1612 1158 164 66 432 155 607 202 267 71 709 148
1047 182 l125 13 7 -30 c4 -16 5 -38 2 -47z m-244 21 c0 -6 7 -8 16 -5 11 4
15 2 11 -8 -3 -8 -1 -17 6 -20 9 -3 9 -5 0 -5 -6 -1 -18 6 -27 14 -8 8 -25 15
-38 16 -22 0 -22 1 -3 9 28 12 35 12 35 -1z m98 4 c-10 -2 -28 -2 -40 0 -13 2
-5 4 17 4 22 1 32 -1 23 -4z m-158 -23 c0 -5 -2 -10 -4 -10 -3 0 -8 5 -11 10
-3 6 -1 10 4 10 6 0 11 -4 11 -10z m164 -2 c-3 -4 -11 -5 -19 -1 -21 7 -19 12
4 10 11 0 18 -5 15 -9z m-201 -15 c-7 -2 -21 -2 -30 0 -10 3 -4 5 12 5 17 0
24 -2 18 -5z m80 0 c-7 -2 -19 -2 -25 0 -7 3 -2 5 12 5 14 0 19 -2 13 -5z
m-89 -22 c4 -5 -3 -7 -14 -4 -23 6 -26 13 -6 13 8 0 17 -4 20 -9z m93 3 c-3
-3 -12 -4 -19 -1 -8 3 -5 6 6 6 11 1 17 -2 13 -5z m914 -364 c171 -32 322
-187 360 -369 15 -71 6 -248 -16 -321 -17 -59 -115 -270 -124 -269 -3 0 -29
28 -58 63 l-52 62 20 60 c11 32 17 46 14 29 -17 -93 -17 -105 -5 -105 7 0 11
3 7 6 -3 4 5 21 18 39 14 17 25 43 25 56 0 13 9 57 20 97 41 149 13 280 -87
399 -64 76 -135 108 -238 108 -68 0 -89 -5 -140 -30 -76 -36 -152 -108 -206
-193 -24 -37 -44 -69 -46 -71 -1 -2 -27 0 -58 4 -66 8 -67 -1 8 134 136 248
319 346 558 301z m-508 -600 c241 -28 402 -156 664 -525 181 -256 374 -618
464 -870 15 -44 32 -81 38 -83 11 -4 23 78 25 176 l1 70 30 -21 c72 -50 182
-173 211 -234 16 -35 33 -63 38 -63 10 0 0 90 -20 178 -26 118 -137 319 -228
415 -19 20 -33 37 -30 37 14 0 80 -33 119 -60 25 -17 51 -30 57 -28 17 6 -131
114 -202 147 -78 36 -60 39 79 12 174 -34 286 -95 408 -225 87 -92 126 -158
172 -291 101 -299 89 -674 -36 -1095 -111 -374 -400 -831 -758 -1198 -66 -68
-124 -130 -128 -138 -13 -23 -158 -153 -239 -215 -16 -11 -28 -26 -28 -34 0
-8 -7 -11 -19 -8 -11 3 -27 -3 -38 -14 -10 -10 -39 -29 -63 -42 -25 -13 -52
-30 -61 -37 -8 -8 -21 -14 -27 -14 -6 0 -16 -9 -22 -19 -5 -11 -24 -23 -42
-26 -18 -4 -38 -11 -43 -16 -21 -16 -202 -106 -250 -124 -28 -10 -54 -21 -60
-25 -5 -4 -46 -19 -90 -35 -44 -15 -94 -33 -110 -41 -17 -7 -51 -18 -75 -24
-122 -31 -119 -30 -58 -25 39 2 58 0 61 -9 4 -9 -3 -12 -19 -10 -13 1 -24 -3
-24 -9 0 -7 -5 -5 -10 3 -6 10 -10 11 -10 3 0 -7 -11 -13 -25 -13 -16 0 -25
-6 -25 -15 0 -11 -12 -15 -50 -15 -48 0 -87 -13 -102 -35 -10 -14 -2 -18 21
-10 12 3 21 13 21 21 0 8 7 14 15 14 8 0 15 -9 15 -20 0 -10 8 -23 18 -29 16
-9 16 -10 -1 -17 -11 -4 -25 0 -36 10 -22 20 -31 20 -31 1 0 -8 9 -15 20 -15
11 0 20 -5 20 -10 0 -6 12 -15 26 -20 25 -10 29 -30 6 -38 -8 -2 -10 3 -5 14
5 13 3 16 -9 12 -9 -4 -20 -2 -25 3 -6 6 -26 7 -46 4 -29 -6 -34 -10 -24 -20
10 -11 15 -11 28 1 25 23 28 17 13 -33 -11 -35 -12 -55 -4 -77 13 -39 13 -43
-4 -21 -13 18 -14 18 -39 -1 -14 -10 -28 -26 -32 -34 -20 -50 -45 -78 -45 -50
0 6 -7 10 -15 10 -19 0 -19 -7 -1 -26 8 -8 34 -14 60 -14 37 0 46 -3 46 -17 0
-13 -3 -14 -12 -5 -17 17 -48 15 -48 -2 0 -8 5 -18 10 -21 17 -11 11 -23 -12
-24 -13 0 -40 -3 -60 -7 -36 -6 -55 8 -25 19 8 3 6 9 -7 19 -20 16 -15 38 10
38 12 0 12 4 -2 25 -19 29 -51 32 -71 8 -10 -13 -16 -15 -19 -5 -3 6 -23 12
-45 12 -21 0 -39 5 -39 11 0 5 -5 7 -10 4 -6 -4 -4 -12 5 -21 17 -18 19 -30 5
-39 -5 -3 -10 1 -10 9 0 9 -6 16 -14 16 -8 0 -16 6 -19 13 -4 9 -7 9 -18 -1
-11 -10 -10 -12 4 -12 26 0 20 -19 -8 -30 -15 -6 -25 -17 -25 -30 0 -11 -4
-20 -9 -20 -14 0 -20 27 -9 38 13 13 2 46 -12 37 -5 -3 -10 -15 -10 -25 0 -13
-5 -18 -16 -13 -8 3 -13 12 -9 21 8 22 -14 45 -31 31 -11 -9 -15 -7 -20 5 -4
10 -13 15 -21 11 -12 -4 -14 0 -8 22 3 16 11 30 16 31 5 2 9 11 9 21 0 9 4 21
9 26 5 6 14 26 19 45 8 34 9 34 16 -27 5 -45 11 -63 21 -63 9 0 15 10 15 25 0
14 5 25 10 25 6 0 10 -11 10 -25 0 -16 6 -25 15 -25 8 0 15 -9 15 -21 0 -11 4
-18 10 -14 5 3 7 12 3 20 -3 10 2 15 16 15 12 0 21 -5 21 -12 0 -7 3 -8 9 -3
4 6 6 29 3 53 -3 30 -9 42 -21 42 -14 1 -14 2 2 11 36 21 50 3 45 -56 -5 -55
-5 -55 24 -55 15 0 28 5 28 10 0 6 -4 10 -10 10 -6 0 -10 28 -10 64 0 36 -4
68 -10 71 -17 10 -11 25 9 25 10 0 21 7 25 15 3 9 12 12 22 8 14 -5 14 -3 3
16 -11 16 -24 21 -59 21 -25 0 -51 5 -57 11 -8 8 -14 1 -23 -25 -17 -53 -34
-58 -25 -7 6 39 6 41 -18 41 -14 0 -27 -3 -30 -7 -2 -5 -2 -2 -1 5 2 7 -6 12
-19 13 -21 0 -21 1 -2 9 16 7 12 9 -18 9 -25 1 -40 -4 -43 -14 -4 -8 -10 -15
-16 -15 -5 0 -7 4 -4 9 10 16 -21 20 -43 5 -11 -8 -21 -11 -21 -6 0 10 -41 4
-50 -8 -3 -3 -16 -14 -30 -24 -19 -14 -20 -17 -5 -11 45 16 56 15 50 -4 -3
-11 1 -26 10 -34 16 -17 20 -32 6 -23 -5 4 -12 0 -14 -6 -3 -7 -6 -1 -6 13 -1
37 -20 50 -50 35 -20 -11 -21 -14 -7 -19 10 -4 15 -3 11 3 -3 6 2 10 11 10 16
0 15 -2 -2 -21 -14 -16 -15 -23 -6 -26 7 -3 12 -22 12 -49 0 -24 5 -44 10 -44
6 0 10 -16 10 -36 0 -19 5 -44 11 -56 6 -11 8 -22 5 -26 -11 -10 -18 7 -24 54
-4 35 -7 42 -14 30 -5 -9 -6 -21 -3 -26 3 -6 3 -15 -1 -22 -5 -8 -10 -6 -15 8
-7 18 -8 17 -8 -3 -1 -12 7 -27 17 -32 9 -6 11 -11 5 -11 -7 0 -13 -8 -13 -17
0 -10 -8 -27 -17 -38 -10 -13 -14 -15 -10 -4 3 9 -1 16 -9 16 -8 0 -14 -3 -14
-7 0 -4 -19 -29 -42 -56 -24 -26 -37 -45 -31 -41 9 6 11 3 7 -7 -3 -9 -10 -13
-15 -10 -8 5 -3 -122 6 -153 2 -6 -1 -13 -7 -15 -6 -2 -12 -19 -13 -38 -2 -42
-14 -80 -24 -80 -4 0 -7 -12 -6 -26 0 -24 7 -29 59 -45 32 -10 72 -21 90 -23
49 -6 210 -47 220 -56 10 -10 -127 20 -281 60 -62 17 -128 30 -148 30 l-36 0
25 33 c68 89 95 208 66 290 -13 34 -12 35 29 72 55 50 87 107 100 177 12 67 7
114 -21 187 -21 52 -21 54 -2 64 36 19 104 100 131 156 26 51 28 66 28 171 0
105 -2 120 -27 171 -114 230 -458 334 -893 269 -71 -10 -133 -16 -137 -12 -4
4 -14 48 -23 97 -49 272 -89 370 -194 476 -102 103 -233 159 -370 161 -83 1
-134 -21 -169 -73 -21 -30 -23 -42 -19 -114 3 -63 13 -103 46 -188 50 -130 52
-156 10 -107 -81 95 -151 309 -174 535 l-6 60 18 -27 c11 -15 39 -43 64 -62
l44 -34 70 24 c82 28 176 31 249 9 32 -10 53 -12 59 -6 7 7 17 6 30 -1 14 -7
16 -12 8 -18 -9 -5 -8 -9 4 -13 9 -4 13 -3 10 3 -6 10 20 15 58 12 18 -2 21 6
11 32 -3 8 -11 13 -18 10 -14 -5 -36 36 -36 67 0 13 -4 18 -12 13 -8 -5 -9 5
-5 37 3 24 3 36 -1 26 -6 -14 -11 -6 -21 35 -8 29 -17 60 -22 68 -11 22 -55
156 -72 220 -8 30 -29 100 -45 155 -17 55 -35 120 -40 145 -6 25 -18 73 -26
108 -9 34 -15 66 -14 70 0 4 -1 14 -5 22 -15 40 -26 108 -20 129 4 17 3 22 -6
17 -8 -6 -11 -45 -10 -138 3 -130 8 -175 36 -301 15 -71 21 -106 23 -147 1
-23 2 -23 10 -5 7 17 9 16 10 -10 0 -16 7 -39 16 -50 9 -13 12 -30 8 -49 -4
-19 -3 -26 5 -22 6 4 11 0 12 -11 1 -10 2 -22 4 -28 1 -5 3 -18 3 -28 1 -10 6
-16 11 -13 5 3 12 -1 15 -10 3 -8 2 -12 -4 -9 -14 9 -12 -8 3 -39 8 -14 17
-23 20 -20 3 3 3 -3 0 -14 -2 -11 0 -23 6 -26 6 -4 11 -15 11 -24 0 -27 -55
84 -88 178 -130 370 -166 898 -82 1230 63 253 163 424 378 644 200 204 402
333 790 502 70 30 135 63 145 71 31 29 18 3 -18 -34 -45 -46 -119 -142 -114
-148 9 -9 298 216 352 274 53 58 74 70 43 26 -15 -23 -58 -136 -53 -141 1 -2
23 10 47 26 55 37 219 109 365 162 198 71 341 99 610 121 89 8 185 6 268 -3z
m-3013 -950 c70 -11 185 -46 211 -64 15 -10 11 -19 -29 -74 -25 -35 -48 -59
-51 -54 -3 5 -27 17 -53 27 -37 13 -68 17 -141 13 -114 -5 -186 -35 -263 -112
-95 -96 -129 -210 -105 -351 9 -50 9 -70 0 -81 -8 -10 -7 -17 5 -29 9 -9 16
-30 16 -46 0 -20 4 -28 12 -23 7 4 8 3 4 -4 -4 -7 11 -24 36 -41 75 -53 85
-62 28 -29 -249 146 -323 458 -161 673 42 56 142 134 205 160 102 43 177 52
286 35z m-602 -933 c131 -134 291 -215 473 -242 25 -4 52 -10 59 -15 8 -5 15
-48 21 -126 8 -131 29 -251 59 -340 10 -32 18 -60 16 -61 -1 -1 -20 7 -42 18
-188 100 -393 298 -481 466 -68 131 -41 1 57 -272 28 -78 62 -140 132 -246 31
-48 55 -89 52 -92 -11 -10 -33 -205 -34 -288 -1 -261 93 -545 231 -696 17 -19
27 -38 23 -43 -5 -4 -54 -43 -109 -86 -289 -224 -443 -476 -464 -762 l-6 -84
-67 164 c-127 308 -195 568 -244 924 -25 186 -31 826 -9 1054 25 272 78 531
161 796 l36 115 34 -58 c19 -32 65 -89 102 -126z m552 9 c0 -49 -2 -54 -20
-49 -11 3 -20 9 -20 14 0 5 6 6 14 3 8 -3 14 1 13 8 0 7 1 28 1 46 3 53 12 36
12 -22z m-180 9 c14 -8 21 -14 15 -14 -5 0 -21 6 -35 14 -14 8 -20 14 -15 14
6 0 21 -6 35 -14z m105 -37 c13 -5 9 -6 -15 -2 -19 4 -42 10 -50 15 -18 11 34
1 65 -13z m6680 -141 c244 -15 435 -166 475 -376 6 -34 10 -716 10 -1899 1
-2060 7 -1894 -71 -2048 -22 -45 -63 -107 -91 -138 -87 -98 -233 -183 -353
-205 -77 -14 -5005 -15 -5115 -1 -126 17 -257 60 -410 136 -248 124 -457 274
-677 487 -97 94 -283 305 -283 320 0 3 23 -4 51 -14 123 -47 372 -88 537 -89
103 0 258 16 337 36 56 14 174 67 185 84 3 4 16 12 30 19 l25 12 -24 -19 c-15
-12 -22 -25 -18 -36 4 -9 2 -16 -4 -16 -5 0 -26 -11 -47 -24 -104 -68 -313
-102 -564 -93 -92 4 -168 5 -168 3 0 -11 309 -250 417 -323 222 -150 472 -254
654 -273 58 -6 438 -7 1003 -3 l910 6 -22 -30 c-28 -40 -28 -49 1 -30 12 8 65
38 117 67 154 85 797 548 1000 719 30 26 107 85 170 131 214 156 505 393 593
484 127 130 224 273 272 399 57 153 57 139 55 1164 l-1 943 -25 67 c-39 105
-110 239 -180 340 -35 51 -64 95 -64 96 0 2 109 3 243 2 133 -1 209 0 170 2
-40 2 -73 8 -73 13 0 6 -5 10 -11 10 -5 0 -7 -4 -4 -10 3 -5 -3 -10 -14 -10
-11 0 -23 5 -26 10 -3 6 1 10 9 10 8 0 18 5 21 11 8 12 -184 1 -201 -12 -13
-10 -24 -2 -24 19 0 10 7 12 23 8 15 -3 24 -1 24 7 0 7 -13 12 -29 12 -26 0
-33 -11 -30 -46 1 -3 -16 -5 -36 -5 -20 1 -40 -3 -44 -8 -9 -14 -88 67 -88 90
0 18 19 19 637 12 351 -3 679 -9 728 -11z m-1051 -86 c4 -5 -1 -8 -9 -7 -21 3
-31 16 -12 16 9 0 18 -4 21 -9z m-479 -296 c46 -454 -50 -931 -239 -1197 -23
-32 -48 -60 -56 -63 -12 -5 -13 -4 -2 6 14 15 16 33 2 24 -15 -10 -12 -2 15
35 28 38 33 59 10 40 -24 -20 -17 -3 8 20 12 12 27 35 34 53 l12 32 -2 -42
c-1 -30 -6 -43 -17 -44 -11 0 -11 -2 -2 -6 9 -3 3 -16 -18 -40 -17 -19 -28
-38 -25 -41 4 -4 10 0 15 8 5 8 20 30 34 48 13 19 22 40 19 48 -3 8 0 14 6 14
6 0 8 7 4 15 -3 10 0 15 8 13 10 -2 14 8 12 40 -1 23 2 42 6 42 5 0 11 9 14
20 3 11 1 20 -4 20 -5 0 -9 -4 -9 -9 0 -5 -7 -17 -15 -25 -12 -12 -13 -20 -5
-35 11 -22 14 -58 3 -47 -4 3 -8 14 -9 22 -1 9 -6 23 -10 32 -4 9 -6 26 -6 37
l2 20 -9 -20 c-5 -12 -4 -25 2 -33 7 -9 6 -20 -3 -37 -14 -25 -30 -33 -30 -15
0 6 -5 10 -11 10 -6 0 -9 -7 -5 -15 9 -26 -10 -16 -22 10 -15 32 -15 35 -1 35
5 0 7 -6 3 -12 -4 -7 1 -5 12 4 13 13 15 21 7 29 -8 8 -18 3 -37 -17 -20 -22
-28 -26 -38 -16 -8 8 -15 9 -25 1 -16 -14 -17 -39 -2 -39 5 0 7 5 4 10 -3 6
-1 10 4 10 6 0 11 -4 11 -10 0 -5 11 -10 25 -10 14 0 29 -8 35 -19 14 -27 -6
-38 -29 -17 -15 14 -20 14 -30 3 -6 -8 -10 -21 -8 -28 2 -8 2 -11 0 -6 -3 4
-11 7 -19 7 -8 0 -14 9 -14 21 0 26 -24 20 -28 -7 -6 -29 -20 -40 -34 -26 -8
8 -8 12 -1 12 8 0 8 7 0 24 -7 13 -15 22 -20 19 -5 -3 -15 3 -22 13 -13 17
-14 16 -9 -12 5 -26 2 -33 -13 -38 -11 -4 -25 -18 -31 -31 -13 -28 -32 -34
-32 -10 0 22 -17 18 -30 -6 -10 -19 -13 -19 -28 -6 -12 11 -22 13 -35 6 -10
-6 -23 -7 -34 -1 -14 9 -14 10 4 16 25 8 35 58 19 92 -12 25 -21 30 -31 15 -3
-6 1 -13 9 -18 10 -6 11 -15 5 -31 -9 -24 -29 -21 -29 4 0 8 5 12 10 9 6 -3
10 -2 10 4 0 5 -4 12 -8 15 -11 6 -92 -81 -83 -90 3 -4 1 -4 -5 -1 -14 8 -37
-16 -27 -27 4 -4 -1 -4 -11 0 -15 6 -17 4 -11 -6 5 -8 4 -11 -2 -7 -6 4 -16 1
-22 -7 -7 -8 -8 -16 -4 -18 4 -3 3 -4 -4 -2 -17 4 -24 -8 -12 -22 13 -16 2
-37 -17 -30 -7 3 -16 1 -19 -4 -3 -5 -13 -6 -22 -3 -11 4 -14 3 -9 -6 4 -6 4
-11 -1 -10 -20 3 -27 -2 -13 -12 13 -9 13 -10 0 -7 -15 2 -60 -22 -60 -33 0
-3 11 -4 25 -1 15 2 25 0 25 -8 0 -7 -8 -9 -22 -5 l-23 7 23 -17 c12 -9 22
-21 22 -27 0 -6 -12 1 -27 16 -17 17 -32 24 -45 21 -10 -4 -18 -4 -18 -2 0 3
42 39 93 80 50 42 134 118 186 171 52 52 99 92 104 89 6 -3 7 -1 4 4 -4 6 3
19 14 29 12 11 61 66 109 124 236 284 416 615 531 977 12 40 24 72 25 70 1 -1
10 -79 19 -172z m425 -114 c0 -5 3 -17 7 -27 4 -11 3 -15 -4 -11 -14 9 -24 47
-12 47 5 0 9 -4 9 -9z m11 -104 c2 -25 0 -50 -4 -53 -4 -4 -7 19 -7 51 0 69 8
70 11 2z m2 -139 c-8 -72 -13 -73 -13 -5 0 32 4 57 10 57 5 0 7 -22 3 -52z
m-5289 -137 c23 -5 26 -9 15 -18 -11 -8 -22 -5 -49 14 -19 14 -26 22 -15 18
11 -4 33 -10 49 -14z m5161 -123 c9 -53 15 -103 12 -110 -3 -7 -6 -3 -6 9 -1
12 -6 45 -12 74 -13 59 -28 50 -29 -16 -1 -33 -3 -37 -11 -22 -7 12 -7 33 0
68 6 27 11 67 11 87 1 58 15 20 35 -90z m-5077 105 c-10 -2 -26 -2 -35 0 -10
3 -2 5 17 5 19 0 27 -2 18 -5z m95 -10 c-13 -2 -35 -2 -50 0 -16 2 -5 4 22 4
28 0 40 -2 28 -4z m-123 -23 c0 -5 -2 -10 -4 -10 -3 0 -8 5 -11 10 -3 6 -1 10
4 10 6 0 11 -4 11 -10z m5207 -22 c-3 -8 -6 -5 -6 6 -1 11 2 17 5 13 3 -3 4
-12 1 -19z m-5124 -68 c16 -15 -96 11 -149 35 -30 13 -54 26 -54 28 0 7 193
-53 203 -63z m-3 40 c8 -5 11 -10 5 -10 -5 0 -17 5 -25 10 -8 5 -10 10 -5 10
6 0 17 -5 25 -10z m95 -78 c-3 -3 -11 0 -18 7 -9 10 -8 11 6 5 10 -3 15 -9 12
-12z m122 2 c-3 -3 -12 -4 -19 -1 -8 3 -5 6 6 6 11 1 17 -2 13 -5z m4880 -36
c-3 -8 -6 -5 -6 6 -1 11 2 17 5 13 3 -3 4 -12 1 -19z m-133 -22 c-3 -15 -8
-25 -11 -23 -2 3 -1 17 3 31 3 15 8 25 11 23 2 -3 1 -17 -3 -31z m-33 -93
c-12 -20 -14 -14 -5 12 4 9 9 14 11 11 3 -2 0 -13 -6 -23z m-4932 -18 c66 -33
162 -107 190 -147 18 -24 12 -20 -25 16 -53 54 -127 105 -189 130 -72 30 -152
19 -103 -14 45 -31 131 -116 157 -155 43 -63 80 -160 92 -238 21 -134 -15
-213 -132 -288 -38 -24 -47 -34 -37 -41 9 -7 8 -8 -5 -4 -10 3 -28 1 -40 -6
-39 -20 -129 -90 -123 -95 4 -5 65 33 76 48 8 10 68 39 83 39 7 0 41 20 75 45
34 25 59 38 55 29 -5 -14 -3 -14 13 -4 16 10 27 9 56 -3 27 -11 39 -12 47 -4
9 9 17 6 32 -13 12 -14 18 -20 15 -13 -3 6 0 14 6 16 8 3 6 6 -4 6 -24 1 -23
13 4 42 14 17 19 19 15 7 -4 -10 -2 -18 4 -18 7 0 9 11 7 25 -3 13 -2 22 2 20
12 -8 30 70 30 131 0 64 -27 180 -53 231 -10 18 -17 36 -17 40 1 13 38 -62 57
-114 13 -35 18 -80 18 -163 0 -108 -2 -119 -31 -180 -17 -36 -47 -82 -66 -103
-59 -62 -54 -68 30 -35 216 83 412 121 622 121 206 0 353 -35 430 -103 l35
-31 -40 25 c-22 14 -58 33 -80 42 l-40 16 48 -51 c103 -110 104 -204 2 -304
-51 -51 -110 -82 -230 -122 -95 -32 -325 -79 -460 -95 -114 -13 -135 -18 -135
-31 0 -5 35 -9 78 -9 74 -1 76 -1 50 -16 -38 -20 -35 -31 12 -39 22 -4 40 -11
40 -15 0 -5 55 -8 123 -6 138 3 253 -6 315 -25 30 -8 39 -15 30 -21 -8 -5 -3
-6 13 -3 22 5 32 0 56 -30 17 -20 36 -54 43 -76 12 -36 12 -42 -7 -67 -25 -34
-107 -76 -187 -96 -79 -19 -317 -56 -370 -56 -64 -1 -24 -16 79 -30 126 -17
310 -65 343 -89 16 -11 29 -27 29 -36 0 -10 -9 -6 -26 14 -27 31 -118 61 -182
61 -16 0 -29 5 -29 10 0 6 -22 10 -52 8 -29 -1 -58 1 -65 5 -6 4 -22 3 -35 -2
l-23 -10 25 -2 c24 -1 23 -2 -5 -9 -16 -4 -22 -8 -12 -9 23 -1 22 -18 -3 -33
-25 -16 -26 -48 -2 -49 11 0 13 -2 4 -6 -10 -4 -8 -9 7 -20 12 -8 26 -11 31
-8 6 3 10 1 10 -5 0 -6 -12 -9 -27 -7 -16 2 -33 0 -39 -5 -21 -15 -335 -22
-405 -9 -82 16 -191 64 -251 110 -47 36 -81 95 -95 161 -6 34 -23 51 -23 23 0
-10 7 -47 16 -83 22 -89 25 -118 14 -125 -6 -3 -10 -1 -10 6 0 7 -2 10 -5 7
-9 -8 6 -38 16 -32 5 3 9 0 9 -5 0 -14 -17 -14 -25 -1 -4 6 -12 5 -21 -4 -18
-19 -18 -27 1 -20 17 7 21 -11 5 -21 -7 -4 -6 -13 1 -27 9 -17 13 -18 20 -7 6
10 9 8 9 -8 0 -13 5 -23 11 -23 5 0 7 -4 4 -10 -3 -5 2 -10 12 -11 10 0 13 -3
5 -6 -13 -5 -50 25 -125 102 -57 59 -186 311 -211 415 -13 51 -39 347 -38 420
1 23 51 134 58 127 3 -3 1 -16 -6 -29 -11 -22 -10 -22 4 -4 9 11 16 29 16 40
0 22 87 116 107 116 7 0 13 5 13 12 0 7 12 23 27 35 14 13 24 25 22 28 -8 8
-157 -139 -197 -195 -79 -110 -134 -259 -127 -343 3 -29 7 -93 10 -143 2 -51
8 -100 12 -109 5 -14 3 -16 -7 -10 -10 6 -12 2 -8 -18 4 -23 3 -25 -13 -16
-19 10 -26 29 -11 29 5 0 9 7 9 15 0 8 -2 15 -3 15 -10 0 -34 -64 -34 -90 0
-16 -4 -30 -10 -30 -5 0 -7 6 -4 13 5 14 -22 44 -32 35 -3 -3 2 -28 10 -54 8
-27 17 -62 20 -79 10 -49 -10 -8 -38 80 -87 275 -56 519 94 744 61 91 205 237
325 330 92 70 131 122 151 201 24 96 15 181 -34 326 -46 133 -51 170 -24 177
34 7 96 -5 141 -28z m225 -193 c3 -5 -1 -9 -9 -9 -8 0 -12 4 -9 9 3 4 7 8 9 8
2 0 6 -4 9 -8z m3767 -98 c9 -11 8 -14 -9 -14 -27 0 -48 25 -22 27 10 1 24 -5
31 -13z m599 -24 c-17 -22 -36 -40 -42 -40 -6 0 -8 -6 -5 -13 3 -8 1 -20 -5
-28 -8 -11 -9 -10 -4 4 8 25 0 21 -44 -23 -22 -22 -43 -40 -47 -40 -4 0 33 41
82 90 49 50 91 90 93 90 2 0 -11 -18 -28 -40z m-366 0 c-9 -18 -23 -30 -35
-30 -28 0 -23 23 9 42 38 24 43 22 26 -12z m66 -31 c0 -5 -4 -9 -10 -9 -5 0
-10 7 -10 16 0 8 5 12 10 9 6 -3 10 -10 10 -16z m-366 -18 c-2 -3 -12 3 -22
13 -16 17 -16 18 5 5 12 -7 20 -15 17 -18z m66 -10 c-12 -23 -25 -27 -35 -11
-3 6 1 10 10 10 9 0 14 4 11 9 -4 5 0 11 6 14 19 6 21 1 8 -22z m580 -42 c0
-5 -4 -7 -10 -4 -5 3 -10 -3 -10 -13 0 -21 -27 -49 -37 -38 -3 3 -1 6 6 6 7 0
9 5 6 10 -3 6 -2 10 3 10 5 0 12 9 15 20 5 21 27 28 27 9z m-662 -40 c-7 -5
-20 -8 -28 -8 -10 0 -11 2 -2 6 6 2 10 8 7 13 -3 4 4 6 16 3 16 -4 17 -8 7
-14z m-138 -23 c0 -2 -7 -9 -15 -16 -13 -11 -14 -10 -9 4 5 14 24 23 24 12z
m730 -38 c-13 -13 -19 -16 -15 -8 14 25 28 41 32 36 3 -3 -5 -15 -17 -28z
m-830 -47 c0 -4 -6 -13 -12 -19 -10 -10 -10 -14 0 -21 10 -6 10 -10 -3 -21 -8
-7 -19 -10 -22 -6 -4 4 -2 11 5 15 10 6 10 11 -3 21 -22 19 -18 35 10 36 14 1
25 -1 25 -5z m-3519 -54 c-10 -9 -11 -8 -5 6 3 10 9 15 12 12 3 -3 0 -11 -7
-18z m3699 -12 c0 -8 -4 -15 -10 -15 -5 0 -10 7 -10 15 0 8 5 15 10 15 6 0 10
-7 10 -15z m50 5 c0 -5 -4 -10 -10 -10 -5 0 -10 5 -10 10 0 6 5 10 10 10 6 0
10 -4 10 -10z m-131 -16 c9 -8 -7 -14 -42 -16 -20 -2 -37 -6 -37 -10 0 -5 -4
-8 -10 -8 -11 0 -14 33 -4 42 5 6 85 -2 93 -8z m-179 -3 c0 -5 -5 -11 -10 -13
-6 -2 -14 -29 -17 -61 -4 -38 -10 -57 -19 -57 -8 0 -14 -10 -15 -22 0 -22 -1
-22 -8 -3 -6 16 -9 10 -13 -25 -4 -31 -1 -48 8 -56 18 -15 18 -54 0 -54 -7 0
-17 10 -21 23 l-8 22 -4 -22 c-2 -13 -9 -23 -16 -23 -18 0 -57 -42 -57 -62 0
-19 -15 -24 -25 -8 -9 15 -17 12 -52 -18 -38 -32 -40 -40 -15 -58 15 -12 14
-13 -15 -14 -23 0 -33 5 -38 20 -3 11 -10 20 -15 20 -5 0 -12 -9 -15 -20 -3
-11 -11 -20 -16 -20 -14 0 -11 -28 7 -55 15 -24 15 -25 -2 -25 -11 0 -25 9
-32 20 -7 11 -23 20 -37 20 -15 0 -25 6 -25 15 0 8 6 12 14 9 8 -3 17 -1 21 5
6 11 -18 16 -67 12 -16 -1 -28 3 -28 8 0 6 -7 11 -15 11 -8 0 -15 -4 -15 -10
0 -5 -7 -10 -16 -10 -8 0 -12 5 -9 10 3 6 -3 10 -13 10 -22 0 -32 -18 -32 -56
0 -16 -6 -24 -16 -24 -9 0 -23 -8 -30 -17 -13 -17 -13 -17 -14 0 0 20 -36 24
-43 5 -4 -10 -8 -9 -16 2 -9 12 -14 13 -31 3 -11 -7 -26 -13 -34 -13 -8 0 -16
6 -19 13 -3 9 -9 7 -24 -6 -30 -26 -34 -10 -6 21 17 18 27 23 30 15 9 -24 25
-13 19 12 -6 25 7 35 19 15 4 -6 11 -8 16 -4 5 3 6 10 3 16 -4 6 1 8 16 3 15
-5 20 -4 16 4 -9 14 7 14 20 1 8 -8 15 -6 24 5 7 8 9 15 4 15 -5 0 2 7 14 16
16 11 27 13 35 5 9 -7 17 -4 27 12 8 12 13 26 12 31 -2 4 9 5 24 2 29 -8 74
16 74 39 0 21 19 28 37 13 15 -11 16 -10 11 10 -6 20 -3 22 33 22 38 0 52 12
27 24 -7 3 -4 4 7 1 11 -2 27 0 35 5 13 9 13 11 0 21 -13 9 -12 10 3 5 9 -3
17 -1 17 4 0 6 7 10 15 10 10 0 15 -10 15 -30 0 -16 4 -30 9 -30 14 0 21 44 8
53 -8 6 -6 7 6 3 10 -3 22 -6 27 -6 4 0 11 -10 14 -22 l7 -23 9 23 c5 12 16
22 25 22 10 0 17 14 21 40 5 30 11 40 25 40 10 0 21 5 25 11 3 6 19 9 35 7 24
-4 29 0 34 22 3 15 5 31 3 36 -3 12 32 64 43 64 5 0 9 -4 9 -9z m52 -83 c-2
-27 -8 -48 -13 -48 -10 0 -12 93 -2 104 13 13 20 -10 15 -56z m83 42 c3 -5 -1
-10 -10 -10 -9 0 -13 5 -10 10 3 6 8 10 10 10 2 0 7 -4 10 -10z m-208 -6 c-3
-3 -12 -4 -19 -1 -8 3 -5 6 6 6 11 1 17 -2 13 -5z m241 -14 c-7 -11 -15 -15
-17 -9 -2 6 3 15 10 20 20 12 21 11 7 -11z m-61 -55 c11 -17 14 -18 23 -5 5 8
10 11 10 5 0 -5 -5 -17 -11 -25 -8 -11 -12 -12 -16 -2 -8 21 -23 13 -40 -23
-12 -24 -19 -31 -25 -23 -12 19 -10 28 6 28 15 0 25 28 27 80 1 30 2 32 8 10
3 -14 12 -34 18 -45z m103 50 c0 -8 -4 -15 -10 -15 -5 0 -10 7 -10 15 0 8 5
15 10 15 6 0 10 -7 10 -15z m-272 -13 c2 -7 -6 -12 -17 -12 -21 0 -27 11 -14
24 9 9 26 2 31 -12z m-84 -17 c-22 -16 -34 -19 -34 -7 0 10 43 32 49 26 3 -2
-4 -11 -15 -19z m156 -20 c0 -25 -4 -45 -9 -45 -5 0 -9 20 -9 45 -1 25 3 45 8
45 6 0 10 -20 10 -45z m167 -7 c-3 -8 -6 -5 -6 6 -1 11 2 17 5 13 3 -3 4 -12
1 -19z m-387 -49 c0 -33 -3 -40 -17 -37 -10 2 -17 11 -15 19 2 12 -5 15 -25
12 l-28 -3 25 12 c34 17 50 34 42 43 -4 5 -1 5 6 1 6 -4 12 -25 12 -47z m389
2 c-3 -6 -10 -7 -18 -2 -7 5 -10 14 -6 21 9 14 29 -2 24 -19z m-205 -45 c-6
-15 -24 -23 -24 -11 0 8 24 34 28 30 1 -1 0 -10 -4 -19z m56 18 c0 -3 -7 -12
-15 -21 -20 -19 -32 -10 -14 11 14 15 29 21 29 10z m73 -24 c-7 -28 -13 -25
-13 6 0 14 4 23 9 20 5 -3 7 -15 4 -26z m-113 -50 c0 -11 -4 -20 -10 -20 -5 0
-10 9 -10 20 0 11 5 20 10 20 6 0 10 -9 10 -20z m-72 -58 c2 -7 -6 -12 -17
-12 -21 0 -27 11 -14 24 9 9 26 2 31 -12z m-38 -32 c0 -5 -9 -10 -21 -10 -11
0 -17 5 -14 10 3 6 13 10 21 10 8 0 14 -4 14 -10z m-105 -39 c-7 -22 -35 -29
-35 -10 0 12 32 40 38 34 2 -2 1 -13 -3 -24z m65 -11 c0 -5 -13 -10 -30 -10
-16 0 -30 5 -30 10 0 6 14 10 30 10 17 0 30 -4 30 -10z m-45 -30 c3 -5 1 -10
-4 -10 -6 0 -11 5 -11 10 0 6 2 10 4 10 3 0 8 -4 11 -10z m-685 -69 c0 -5 -11
-12 -24 -15 -13 -3 -26 -15 -29 -27 -7 -26 -50 -23 -55 5 -3 16 0 18 22 12 18
-4 25 -3 24 5 -2 7 8 16 22 20 35 10 40 10 40 0z m465 -11 c3 -6 -4 -10 -17
-10 -18 0 -20 2 -8 10 19 12 18 12 25 0z m-1815 -3 c0 -2 -10 -12 -22 -23
l-23 -19 19 23 c18 21 26 27 26 19z m1220 -48 c0 -11 -4 -18 -8 -15 -5 3 -27
6 -50 7 -44 3 -45 14 -2 22 52 9 60 7 60 -14z m187 -11 c-3 -7 -5 -2 -5 12 0
14 2 19 5 13 2 -7 2 -19 0 -25z m139 5 c-10 -10 -19 5 -10 18 6 11 8 11 12 0
2 -7 1 -15 -2 -18z m-358 -30 c-10 -2 -28 -2 -40 0 -13 2 -5 4 17 4 22 1 32
-1 23 -4z m-238 -68 c0 -8 -4 -15 -10 -15 -5 0 -10 7 -10 15 0 8 5 15 10 15 6
0 10 -7 10 -15z m40 -5 c0 -5 -4 -10 -10 -10 -5 0 -10 5 -10 10 0 6 5 10 10
10 6 0 10 -4 10 -10z m-504 -86 c-3 -8 -13 -14 -23 -13 -11 0 -13 3 -5 6 6 2
12 13 12 22 0 10 3 21 8 25 9 10 16 -20 8 -40z m-229 14 c-3 -8 -6 -5 -6 6 -1
11 2 17 5 13 3 -3 4 -12 1 -19z m123 -28 c0 -5 -2 -10 -4 -10 -3 0 -8 5 -11
10 -3 6 -1 10 4 10 6 0 11 -4 11 -10z m22 -42 c-9 -9 -12 -7 -12 12 0 19 3 21
12 12 9 -9 9 -15 0 -24z m-245 -30 c-3 -7 -5 -2 -5 12 0 14 2 19 5 13 2 -7 2
-19 0 -25z m746 -5 c-3 -7 -10 -10 -16 -6 -8 5 -8 8 0 10 7 3 9 12 6 21 -4 14
-3 14 5 3 6 -8 8 -20 5 -28z m72 27 c-3 -5 -10 -10 -16 -10 -5 0 -9 5 -9 10 0
6 7 10 16 10 8 0 12 -4 9 -10z m-595 -10 c0 -5 -5 -10 -11 -10 -5 0 -7 5 -4
10 3 6 8 10 11 10 2 0 4 -4 4 -10z m40 -32 c0 -19 -2 -20 -10 -8 -13 19 -13
30 0 30 6 0 10 -10 10 -22z m-493 -50 c-3 -7 -5 -2 -5 12 0 14 2 19 5 13 2 -7
2 -19 0 -25z m250 -10 c-3 -8 -6 -5 -6 6 -1 11 2 17 5 13 3 -3 4 -12 1 -19z
m653 -25 c0 -22 -2 -25 -10 -13 -13 20 -13 40 0 40 6 0 10 -12 10 -27z m110
-13 c0 -5 -4 -10 -10 -10 -5 0 -10 5 -10 10 0 6 5 10 10 10 6 0 10 -4 10 -10z
m-1029 -27 c-12 -20 -14 -14 -5 12 4 9 9 14 11 11 3 -2 0 -13 -6 -23z m429
-23 c0 -5 -2 -10 -4 -10 -3 0 -8 5 -11 10 -3 6 -1 10 4 10 6 0 11 -4 11 -10z
m230 0 c0 -5 -4 -10 -10 -10 -5 0 -10 5 -10 10 0 6 5 10 10 10 6 0 10 -4 10
-10z m-677 -15 c-3 -9 -8 -14 -10 -11 -3 3 -2 9 2 15 9 16 15 13 8 -4z m-1766
-67 c-2 -13 -4 -3 -4 22 0 25 2 35 4 23 2 -13 2 -33 0 -45z m1947 10 c-7 -24
-32 -47 -49 -47 -5 0 -3 5 6 12 9 7 21 22 28 35 15 28 24 29 15 0z m2193 -50
c67 -64 135 -165 159 -235 l21 -63 22 51 c12 28 25 82 28 120 3 39 10 66 14
62 31 -31 87 -270 73 -307 -3 -9 -3 -16 0 -16 10 0 56 107 56 130 0 28 19 34
24 8 6 -25 37 -163 56 -245 10 -45 9 -55 -6 -78 -23 -35 -186 -169 -439 -360
-115 -88 -235 -178 -265 -202 -62 -49 -79 -52 -106 -22 -60 67 -267 205 -430
287 -55 28 -105 56 -111 64 -6 7 -23 42 -39 78 -15 36 -41 84 -57 108 -16 24
-26 46 -23 49 6 6 186 -75 244 -109 18 -11 35 -18 38 -15 3 3 -13 42 -35 88
-23 46 -41 84 -41 86 0 12 35 -4 107 -47 46 -27 85 -50 87 -50 2 0 20 33 40
73 45 89 60 167 53 275 -3 45 -3 82 -1 82 20 0 164 -176 164 -199 0 -6 4 -11
10 -11 5 0 8 12 5 28 -2 15 -6 47 -9 72 -3 25 -8 55 -12 65 -18 47 29 -12 64
-79 29 -58 36 -82 36 -133 1 -59 2 -61 19 -45 33 30 108 135 137 192 47 94 62
153 62 250 0 49 3 90 5 90 3 0 25 -19 50 -42z m-4207 15 c0 -10 7 -31 15 -47
17 -31 20 -61 4 -34 -19 33 -38 98 -29 98 6 0 10 -8 10 -17z m1613 -230 c-3
-7 -9 -10 -14 -7 -14 8 -11 21 5 21 8 0 12 -6 9 -14z m3158 -176 c-10 -9 -11
-8 -5 6 3 10 9 15 12 12 3 -3 0 -11 -7 -18z m-2397 -107 c5 0 7 -3 4 -6 -7 -6
-89 16 -103 28 -5 5 13 2 40 -7 28 -8 54 -15 59 -15z m103 -36 c-5 -5 -57 13
-57 20 0 3 14 0 31 -6 16 -6 28 -12 26 -14z m-607 -38 c0 -2 -9 -6 -20 -9 -11
-3 -18 -1 -14 4 5 9 34 13 34 5z m-50 -26 c0 -5 -7 -10 -15 -10 -8 0 -15 5
-15 10 0 6 7 10 15 10 8 0 15 -4 15 -10z m917 -6 c-3 -3 -12 -4 -19 -1 -8 3
-5 6 6 6 11 1 17 -2 13 -5z m-892 -14 c3 -5 1 -10 -4 -10 -6 0 -11 5 -11 10 0
6 2 10 4 10 3 0 8 -4 11 -10z m282 4 c-3 -3 -12 -4 -19 -1 -8 3 -5 6 6 6 11 1
17 -2 13 -5z m-217 -44 c0 -5 -2 -10 -4 -10 -3 0 -8 5 -11 10 -3 6 -1 10 4 10
6 0 11 -4 11 -10z m45 -28 c-3 -3 -11 0 -18 7 -9 10 -8 11 6 5 10 -3 15 -9 12
-12z m1076 -7 c44 -18 26 -19 -26 0 -22 8 -33 14 -24 15 9 0 32 -7 50 -15z
m94 -36 c15 -14 -7 -10 -35 7 l-25 15 25 -7 c14 -3 29 -10 35 -15z m45 -19 c8
-5 11 -10 5 -10 -5 0 -17 5 -25 10 -8 5 -10 10 -5 10 6 0 17 -5 25 -10z m-160
-90 c8 -5 11 -10 5 -10 -5 0 -17 5 -25 10 -8 5 -10 10 -5 10 6 0 17 -5 25 -10z
m110 -40 c8 -5 11 -10 5 -10 -5 0 -17 5 -25 10 -8 5 -10 10 -5 10 6 0 17 -5
25 -10z m160 -70 c19 -11 31 -19 25 -19 -5 0 -26 8 -45 19 -19 11 -30 19 -25
19 6 0 26 -8 45 -19z m109 -56 c14 -12 -19 -1 -35 12 -18 14 -18 14 6 3 14 -6
27 -13 29 -15z m106 -59 c11 -9 2 -7 -20 6 -22 12 -44 26 -50 32 -16 15 48
-20 70 -38z m59 -44 c-2 -3 -12 3 -22 13 -16 17 -16 18 5 5 12 -7 20 -15 17
-18z m136 -87 c0 -3 -13 4 -30 16 -16 12 -30 24 -30 26 0 3 14 -4 30 -16 17
-12 30 -24 30 -26z m97 -70 c-6 -6 -62 12 -57 18 3 3 -4 16 -15 28 -14 16 -5
13 27 -10 26 -19 46 -35 45 -36z"/>
<path d="M3650 8396 c0 -2 7 -7 16 -10 8 -3 12 -2 9 4 -6 10 -25 14 -25 6z"/>
<path d="M3830 8390 c8 -5 20 -10 25 -10 6 0 3 5 -5 10 -8 5 -19 10 -25 10 -5
0 -3 -5 5 -10z"/>
<path d="M3618 8383 c7 -3 16 -2 19 1 4 3 -2 6 -13 5 -11 0 -14 -3 -6 -6z"/>
<path d="M3690 8365 c-7 -9 -8 -15 -2 -15 5 0 12 7 16 15 3 8 4 15 2 15 -2 0
-9 -7 -16 -15z"/>
<path d="M2490 8000 c-8 -5 -10 -10 -5 -10 6 0 17 5 25 10 8 5 11 10 5 10 -5
0 -17 -5 -25 -10z"/>
<path d="M2430 7975 c-14 -8 -20 -14 -15 -14 6 0 21 6 35 14 14 8 21 14 15 14
-5 0 -21 -6 -35 -14z"/>
<path d="M2363 7950 c-34 -14 -28 -21 7 -9 17 6 30 13 30 15 0 6 -12 4 -37 -6z"/>
<path d="M5004 8011 c3 -5 -8 -14 -24 -20 -41 -14 -38 -17 11 -13 31 3 48 -1
71 -18 16 -12 36 -19 44 -16 21 8 29 -20 15 -52 -11 -24 -10 -28 20 -54 33
-29 49 -35 49 -18 0 6 -3 9 -8 8 -8 -3 -62 36 -62 44 0 3 8 14 18 25 15 18 20
19 36 8 23 -17 11 -38 -16 -29 -26 8 -16 -11 14 -27 15 -8 19 -8 13 0 -9 15
14 43 28 34 6 -4 7 -1 2 7 -6 10 -4 12 8 7 11 -4 14 -2 10 9 -4 11 -9 12 -19
3 -10 -8 -16 -6 -26 10 -7 12 -23 21 -35 21 -14 0 -23 6 -23 15 0 9 -14 22
-30 29 -17 7 -28 15 -24 18 3 4 -4 4 -17 1 -17 -5 -20 -3 -14 8 7 11 5 11 -10
-1 -11 -9 -16 -10 -11 -2 4 7 1 12 -9 12 -9 0 -14 -4 -11 -9z m63 -27 c-3 -3
-12 -4 -19 -1 -8 3 -5 6 6 6 11 1 17 -2 13 -5z m33 -8 c0 -3 -4 -8 -10 -11 -5
-3 -10 -1 -10 4 0 6 5 11 10 11 6 0 10 -2 10 -4z"/>
<path d="M4810 7989 c0 -5 5 -7 10 -4 6 3 10 8 10 11 0 2 -4 4 -10 4 -5 0 -10
-5 -10 -11z"/>
<path d="M4854 7982 c18 -8 18 -9 2 -15 -10 -4 -23 -4 -28 0 -7 4 -8 1 -3 -7
5 -9 23 -11 59 -6 34 4 46 2 36 -4 -12 -8 -11 -10 7 -10 12 0 29 3 38 6 24 10
-30 35 -85 40 -29 2 -38 1 -26 -4z"/>
<path d="M5005 7945 c-22 -8 -33 -14 -25 -14 8 -1 26 -4 40 -6 22 -5 22 -4 5
4 -17 8 -17 10 -3 10 9 1 20 6 23 11 3 6 5 10 3 9 -2 -1 -21 -7 -43 -14z"/>
<path d="M4786 7927 c-16 -12 -16 -14 -3 -14 9 0 18 6 21 14 3 7 4 13 3 13 -2
0 -11 -6 -21 -13z"/>
<path d="M4848 7933 c12 -2 30 -2 40 0 9 3 -1 5 -23 4 -22 0 -30 -2 -17 -4z"/>
<path d="M5060 7910 c0 -5 12 -10 28 -10 21 0 24 2 12 10 -20 13 -40 13 -40 0z"/>
<path d="M4636 7873 c-6 -14 -5 -15 5 -6 7 7 10 15 7 18 -3 3 -9 -2 -12 -12z"/>
<path d="M4670 7850 c0 -15 21 -23 32 -12 6 6 2 11 -11 15 -12 3 -21 1 -21 -3z"/>
<path d="M4597 7826 c-4 -10 -1 -13 8 -9 8 3 12 9 9 14 -7 12 -11 11 -17 -5z"/>
<path d="M5250 7765 c0 -8 2 -15 4 -15 2 0 6 7 10 15 3 8 1 15 -4 15 -6 0 -10
-7 -10 -15z"/>
<path d="M5250 7731 c0 -6 4 -13 10 -16 6 -3 7 1 4 9 -7 18 -14 21 -14 7z"/>
<path d="M5280 7390 c0 -5 5 -10 10 -10 6 0 10 5 10 10 0 6 -4 10 -10 10 -5 0
-10 -4 -10 -10z"/>
<path d="M5246 7243 c-6 -14 -5 -15 5 -6 7 7 10 15 7 18 -3 3 -9 -2 -12 -12z"/>
<path d="M4380 7270 c-146 -26 -267 -122 -300 -240 -13 -47 -13 -138 2 -219
14 -83 23 -93 38 -44 34 104 107 207 183 258 75 51 78 43 5 -13 -35 -27 -62
-54 -60 -61 1 -7 -1 -10 -6 -7 -5 3 -18 -10 -28 -29 -10 -19 -22 -35 -25 -35
-6 0 -19 -35 -25 -65 -1 -5 -3 -12 -4 -15 -1 -3 -3 -14 -4 -25 -2 -11 -6 -42
-10 -70 -7 -57 8 -100 18 -49 33 165 73 241 154 293 60 38 106 50 217 57 65 5
112 2 169 -10 97 -20 93 -20 99 3 4 17 -7 24 -78 50 -46 17 -116 34 -157 39
-42 6 -58 10 -37 11 85 3 275 -54 334 -101 38 -30 41 -16 8 43 -94 174 -289
264 -493 229z m87 -186 c-3 -3 -12 -4 -19 -1 -8 3 -5 6 6 6 11 1 17 -2 13 -5z"/>
<path d="M5135 6955 c25 -36 45 -69 45 -73 0 -13 82 -167 91 -170 5 -2 9 -7 9
-11 0 -4 23 -48 51 -97 28 -49 48 -81 45 -71 -3 10 -6 32 -6 48 0 20 -4 27
-14 23 -13 -5 -32 36 -27 62 3 22 -19 64 -31 62 -7 -2 -13 6 -13 19 0 11 -4
25 -8 29 -4 5 -5 1 -1 -9 3 -10 1 -17 -5 -17 -10 0 -12 6 -11 25 1 3 -8 17
-19 32 -12 14 -18 30 -14 36 3 5 2 7 -4 4 -6 -4 -16 6 -22 21 -19 42 -92 152
-102 152 -4 0 12 -29 36 -65z"/>
<path d="M4815 7000 c3 -5 8 -10 11 -10 2 0 4 5 4 10 0 6 -5 10 -11 10 -5 0
-7 -4 -4 -10z"/>
<path d="M5330 6656 c0 -2 7 -9 15 -16 13 -11 14 -10 9 4 -5 14 -24 23 -24 12z"/>
<path d="M4394 6606 c-84 -39 -128 -111 -127 -206 1 -78 33 -179 104 -328 27
-57 49 -110 49 -118 0 -24 17 -16 38 19 12 17 33 44 49 59 50 48 182 116 270
139 l84 22 -6 31 c-36 180 -129 337 -228 385 -62 30 -165 29 -233 -3z m97 -95
c55 -56 31 -131 -42 -131 -96 0 -92 152 4 159 5 1 22 -12 38 -28z"/>
<path d="M5380 6564 c0 -5 6 -18 13 -29 12 -15 15 -16 22 -4 5 8 4 10 0 6 -5
-4 -15 3 -22 15 -7 13 -12 18 -13 12z"/>
<path d="M2290 6502 c-75 -25 -126 -56 -183 -111 -137 -130 -221 -319 -261
-587 -9 -65 -9 -81 1 -81 7 0 11 2 9 5 -8 8 22 78 50 118 102 144 145 189 239
251 64 42 108 61 194 87 62 19 141 21 141 5 0 -6 -6 -9 -13 -6 -8 3 -22 -6
-32 -19 -13 -17 -24 -23 -38 -18 -13 4 -17 2 -13 -5 4 -7 -1 -11 -13 -11 -11
0 -23 -5 -27 -11 -5 -8 0 -10 17 -6 14 4 38 2 54 -2 22 -7 25 -10 10 -11 -18
-1 -18 -2 3 -11 17 -6 27 -5 38 6 9 8 30 14 47 14 l32 -2 -35 -6 -35 -7 34 -7
c45 -9 53 -9 46 3 -3 6 1 10 10 10 9 0 13 -4 10 -10 -4 -6 5 -10 19 -10 14 0
26 -4 26 -10 0 -5 8 -10 18 -10 9 0 28 -10 42 -21 14 -11 20 -18 14 -15 -6 3
-11 -1 -11 -9 0 -8 4 -12 9 -9 4 3 16 0 25 -5 10 -6 14 -11 10 -11 -12 0 12
-40 25 -40 9 0 9 3 0 12 -7 7 -12 16 -12 21 0 5 10 -3 22 -19 13 -16 29 -34
38 -41 9 -8 11 -12 3 -13 -6 0 -19 10 -27 22 -9 12 -16 19 -16 15 0 -4 15 -26
33 -50 17 -23 41 -61 51 -84 10 -23 23 -40 27 -37 5 3 6 -1 3 -9 -3 -8 2 -21
10 -30 8 -8 12 -18 8 -22 -4 -5 1 -5 10 -2 22 8 26 0 33 -59 8 -61 25 -83 25
-31 0 69 -40 221 -81 307 -46 98 -79 149 -131 205 -21 22 -38 43 -38 47 0 13
-89 66 -155 93 -59 23 -79 26 -149 23 -117 -6 -241 -62 -345 -158 -18 -17 -35
-29 -38 -27 -7 8 82 79 148 119 160 97 332 108 497 30 70 -33 79 -25 62 63
-16 82 -48 123 -128 162 -76 36 -227 43 -312 15z m227 -308 c-3 -3 -12 -4 -19
-1 -8 3 -5 6 6 6 11 1 17 -2 13 -5z m76 -21 c-7 -2 -19 -2 -25 0 -7 3 -2 5 12
5 14 0 19 -2 13 -5z m52 -13 c3 -5 -1 -10 -9 -10 -9 0 -16 5 -16 10 0 6 4 10
9 10 6 0 13 -4 16 -10z m-156 -26 c-13 -16 -45 -19 -54 -4 -4 6 5 10 19 10 14
0 26 5 26 11 0 5 5 7 10 4 8 -5 7 -11 -1 -21z m-469 -38 c0 -2 -8 -10 -17 -17
-16 -13 -17 -12 -4 4 13 16 21 21 21 13z m824 -245 c-5 -5 -33 30 -34 43 0 4
9 -2 19 -15 11 -13 17 -26 15 -28z m30 -60 c-6 -6 -11 1 -18 29 l-7 25 15 -25
c8 -14 12 -27 10 -29z"/>
<path d="M4961 6504 c0 -11 3 -14 6 -6 3 7 2 16 -1 19 -3 4 -6 -2 -5 -13z"/>
<path d="M2320 6151 c0 -5 9 -7 20 -4 11 3 20 7 20 9 0 2 -9 4 -20 4 -11 0
-20 -4 -20 -9z"/>
<path d="M2305 6100 c-9 -10 -14 -24 -10 -29 3 -6 -1 -11 -9 -11 -9 0 -17 -6
-18 -12 0 -7 -2 -22 -3 -33 -5 -38 -6 -40 -18 -24 -10 12 -16 13 -35 3 -15 -7
-20 -14 -12 -19 6 -4 17 -2 24 4 7 6 16 8 19 4 10 -9 -14 -34 -26 -26 -6 4 -7
1 -2 -6 5 -9 17 -3 44 21 20 18 41 37 46 42 6 6 5 6 -2 2 -25 -14 -35 6 -14
25 12 11 21 24 21 28 0 5 7 11 14 14 11 4 13 1 9 -11 -6 -15 -5 -16 13 -2 10
8 20 15 22 16 1 1 -8 8 -22 17 -22 15 -25 15 -41 -3z"/>
<path d="M2378 6103 c6 -2 9 -10 6 -15 -4 -7 -2 -8 4 -4 18 11 14 26 -5 25
-11 0 -13 -3 -5 -6z"/>
<path d="M2488 6073 c7 -3 16 -2 19 1 4 3 -2 6 -13 5 -11 0 -14 -3 -6 -6z"/>
<path d="M5214 5908 c-153 -104 -235 -152 -256 -151 -10 1 -18 -4 -18 -12 0
-7 -48 -44 -107 -81 -124 -79 -263 -181 -263 -194 0 -18 20 -20 50 -5 17 9
101 61 187 115 86 55 160 100 165 100 21 0 105 -167 91 -180 -4 -4 -39 -20
-78 -35 -199 -77 -265 -114 -265 -145 0 -22 -2 -22 249 79 69 28 125 50 127
48 7 -8 35 -199 32 -223 l-3 -29 -129 -7 c-167 -9 -232 -23 -239 -48 -5 -19 0
-19 177 -13 117 4 185 2 189 -4 10 -16 -28 -182 -62 -268 -39 -101 -77 -161
-149 -238 -114 -121 -237 -177 -386 -177 -97 0 -178 19 -256 61 -92 49 -135
100 -186 224 -71 172 -73 156 41 356 54 95 113 206 130 248 83 196 95 385 30
482 -15 24 -44 47 -82 66 -56 27 -64 28 -193 27 -112 -1 -152 -6 -235 -28
-238 -64 -476 -229 -551 -382 -57 -117 -31 -268 61 -353 59 -55 120 -83 255
-120 127 -35 297 -89 383 -121 55 -21 57 -23 72 -73 61 -215 58 -356 -12 -505
-35 -74 -131 -169 -215 -209 -86 -42 -162 -57 -298 -57 -93 0 -128 4 -185 23
-88 29 -193 83 -240 124 l-36 32 103 75 c56 41 131 94 167 117 106 67 104 65
88 87 -14 19 -18 17 -103 -34 -112 -67 -231 -146 -239 -160 -3 -6 -20 -17 -36
-26 -24 -12 -34 -13 -45 -3 -23 19 -114 159 -114 175 0 18 220 127 350 174 89
32 110 52 70 65 -31 10 -174 -39 -321 -111 -72 -35 -134 -64 -139 -64 -21 0
-55 218 -36 236 21 21 212 63 361 79 63 7 85 18 85 41 0 10 -12 14 -38 14 -67
0 -265 -29 -337 -50 -85 -24 -89 -24 -81 -3 6 14 2 13 -16 -4 -13 -12 -72 -43
-133 -68 -281 -120 -356 -185 -109 -95 76 28 147 49 156 46 10 -2 16 0 12 5
-3 5 -2 9 3 9 4 0 23 -51 42 -113 18 -61 35 -116 37 -122 2 -5 -27 -31 -65
-57 -93 -64 -180 -145 -187 -174 -3 -13 -11 -24 -18 -24 -6 0 -4 -5 4 -10 10
-6 11 -10 3 -10 -7 0 -13 -5 -13 -11 0 -5 20 4 45 22 25 18 45 34 45 36 0 6
-22 -7 -43 -25 -9 -8 -19 -13 -22 -10 -11 11 236 198 261 198 8 0 33 -32 34
-43 0 -5 -5 -5 -12 -1 -7 4 -8 3 -4 -5 4 -6 11 -9 15 -7 9 6 52 -49 56 -72 1
-10 7 -16 12 -15 6 1 24 -13 42 -30 l31 -33 -54 -64 c-71 -84 -118 -163 -114
-192 3 -20 6 -18 30 22 31 54 155 190 172 190 7 0 25 -14 42 -31 50 -52 150
-119 287 -189 149 -77 226 -120 214 -120 -4 0 -21 7 -36 15 -16 8 -31 11 -35
8 -3 -4 -6 -1 -6 5 0 6 -9 9 -20 7 -11 -2 -18 0 -15 4 2 5 -6 9 -20 9 -14 0
-22 -4 -19 -9 3 -5 0 -9 -5 -9 -6 0 -11 -7 -11 -14 0 -8 33 -31 74 -51 67 -33
84 -37 197 -45 68 -5 167 -16 219 -24 174 -28 289 -19 505 40 232 64 405 136
458 192 59 62 125 211 264 592 98 268 130 367 150 469 l17 84 90 -7 c50 -4
102 -10 115 -13 17 -4 22 -2 19 8 -7 23 -67 46 -150 59 l-78 12 0 59 c0 49
-19 166 -36 221 -4 12 8 21 51 37 30 12 80 30 110 42 30 11 55 25 55 30 0 15
-47 10 -142 -16 -50 -15 -91 -25 -93 -23 -1 2 -13 28 -27 58 -14 31 -39 72
-57 92 l-32 37 78 59 c101 78 220 188 212 197 -4 3 -56 -27 -115 -67z m-1234
-145 c0 -5 -59 -42 -131 -83 -72 -41 -178 -112 -236 -158 -178 -141 -238 -173
-271 -140 -16 16 -15 73 2 107 47 90 251 217 420 261 70 19 216 27 216 13z
m644 -1682 c35 -17 72 -43 81 -58 18 -26 18 -27 -17 -58 -19 -18 -70 -46 -114
-63 -80 -31 -279 -80 -288 -71 -3 3 -15 44 -27 92 -27 104 -20 125 49 158 65
32 99 38 179 35 57 -2 86 -10 137 -35z m-427 -159 c17 -13 53 -86 53 -107 0
-12 -110 -37 -180 -42 -75 -5 -91 -3 -127 16 -77 39 -74 76 8 106 24 9 60 23
79 30 51 20 140 19 167 -3z"/>
<path d="M4290 3870 c-9 -6 -10 -10 -3 -10 6 0 15 5 18 10 8 12 4 12 -15 0z"/>
<path d="M2161 5937 c0 -13 3 -16 6 -8 5 11 7 11 14 0 6 -10 9 -11 9 -1 0 6 1
15 3 19 1 3 -6 7 -15 9 -13 1 -18 -4 -17 -19z"/>
<path d="M2185 5904 c-16 -15 -25 -19 -22 -10 5 11 1 16 -13 16 -11 0 -20 -4
-20 -10 0 -5 5 -10 10 -10 6 0 10 -5 10 -11 0 -5 -6 -7 -12 -3 -9 5 -9 2 1 -9
12 -15 10 -20 -13 -38 -17 -13 -26 -30 -26 -47 0 -20 3 -23 9 -12 6 8 7 18 4
23 -3 5 0 8 8 5 8 -3 15 -13 17 -24 3 -16 1 -16 -7 -4 -9 12 -11 11 -11 -7 0
-12 -5 -23 -12 -25 -8 -3 -12 -22 -10 -54 1 -38 -1 -45 -8 -29 -9 17 -9 16 -4
-5 11 -39 5 -182 -6 -175 -3 2 -5 -14 -5 -36 0 -21 3 -39 7 -39 5 0 8 12 8 27
0 53 11 14 12 -46 2 -70 10 -81 35 -52 21 25 33 18 32 -17 0 -23 -2 -24 -8 -8
-4 11 -10 15 -13 10 -11 -20 -6 -77 10 -103 18 -29 42 -31 43 -3 0 14 2 13 9
-3 7 -16 9 -17 9 -3 1 24 -15 31 -32 14 -12 -13 -14 -10 -12 23 1 21 5 42 8
48 7 11 -27 126 -35 118 -3 -3 -5 7 -5 22 0 16 -3 73 -8 128 -10 128 6 226 50
312 18 35 31 63 30 63 -1 0 -15 -12 -30 -26z m-60 -464 c5 -36 1 -29 -16 25
-6 20 -6 26 1 19 5 -5 12 -25 15 -44z"/>
<path d="M2530 5837 c-115 -54 -161 -161 -139 -322 11 -81 63 -260 78 -269 5
-3 33 3 63 13 79 27 181 42 304 44 105 2 109 3 122 27 25 47 -5 224 -58 343
-30 67 -85 126 -145 153 -39 19 -66 24 -125 23 -41 0 -86 -6 -100 -12z m85
-112 c49 -48 25 -128 -42 -141 -32 -6 -40 -3 -60 20 -70 81 28 196 102 121z"/>
<path d="M1717 5723 c-8 -13 8 -89 16 -76 4 6 3 23 -3 38 -6 15 -8 31 -4 36 3
5 3 9 0 9 -3 0 -7 -3 -9 -7z"/>
<path d="M1800 5705 c0 -8 5 -15 10 -15 6 0 10 7 10 15 0 8 -4 15 -10 15 -5 0
-10 -7 -10 -15z"/>
<path d="M2910 5681 c0 -6 4 -13 10 -16 6 -3 7 1 4 9 -7 18 -14 21 -14 7z"/>
<path d="M1711 5544 c0 -11 3 -14 6 -6 3 7 2 16 -1 19 -3 4 -6 -2 -5 -13z"/>
<path d="M2186 5271 c-3 -5 1 -14 8 -20 12 -10 13 -8 9 8 -6 23 -9 25 -17 12z"/>
<path d="M2345 5180 c-21 -9 -21 -9 8 -15 9 -2 15 0 12 5 -3 5 1 11 7 13 7 3
9 5 3 6 -5 0 -19 -4 -30 -9z"/>
<path d="M2262 5163 c-28 -5 -24 -28 6 -29 12 -1 22 6 25 17 3 11 2 18 -1 18
-4 -1 -17 -4 -30 -6z"/>
<path d="M2759 4883 c-13 -16 -12 -17 4 -4 16 13 21 21 13 21 -2 0 -10 -8 -17
-17z"/>
<path d="M1791 4794 c0 -11 3 -14 6 -6 3 7 2 16 -1 19 -3 4 -6 -2 -5 -13z"/>
<path d="M2598 4703 c7 -3 16 -2 19 1 4 3 -2 6 -13 5 -11 0 -14 -3 -6 -6z"/>
<path d="M2562 4680 c0 -14 2 -19 5 -12 2 6 2 18 0 25 -3 6 -5 1 -5 -13z"/>
<path d="M2437 4639 c7 -7 15 -10 18 -7 3 3 -2 9 -12 12 -14 6 -15 5 -6 -5z"/>
<path d="M2420 4616 c0 -2 7 -7 16 -10 8 -3 12 -2 9 4 -6 10 -25 14 -25 6z"/>
<path d="M2630 4611 c0 -6 4 -13 10 -16 6 -3 7 1 4 9 -7 18 -14 21 -14 7z"/>
<path d="M2168 4323 c6 -2 18 -2 25 0 6 3 1 5 -13 5 -14 0 -19 -2 -12 -5z"/>
<path d="M2042 4296 c10 -7 14 -17 10 -21 -4 -5 -1 -5 6 -1 16 9 44 -12 35
-27 -3 -6 -1 -7 6 -3 6 4 9 11 7 15 -3 4 8 6 25 5 16 -1 27 2 24 7 -3 4 -13 5
-22 2 -11 -4 -14 -3 -9 5 7 11 2 13 -46 16 -9 1 -20 4 -24 9 -4 4 -12 7 -18 7
-6 0 -3 -7 6 -14z"/>
<path d="M2220 4270 c0 -5 5 -10 10 -10 6 0 10 5 10 10 0 6 -4 10 -10 10 -5 0
-10 -4 -10 -10z"/>
<path d="M2395 4250 c-8 -13 3 -30 18 -30 8 0 7 3 -2 9 -7 5 -10 14 -7 20 4 6
5 11 2 11 -3 0 -8 -4 -11 -10z"/>
<path d="M2132 4236 c10 -7 14 -17 10 -21 -4 -5 -1 -5 6 -1 18 11 10 29 -14
32 -18 3 -18 2 -2 -10z"/>
<path d="M2170 4202 c0 -5 10 -17 22 -28 l21 -19 -18 28 c-18 28 -25 33 -25
19z"/>
<path d="M2214 4183 c23 -28 23 -28 36 -3 8 16 8 20 -4 20 -10 0 -13 -6 -9
-17 6 -16 3 -16 -18 2 l-24 20 19 -22z"/>
<path d="M2310 4132 c0 -12 19 -26 26 -19 2 2 -2 10 -11 17 -9 8 -15 8 -15 2z"/>
<path d="M2260 4110 c0 -5 5 -10 11 -10 5 0 7 5 4 10 -3 6 -8 10 -11 10 -2 0
-4 -4 -4 -10z"/>
<path d="M2317 4055 c-4 -8 -1 -17 5 -21 7 -4 8 -3 4 4 -4 7 -1 12 8 12 9 0
16 5 16 10 0 16 -27 12 -33 -5z"/>
<path d="M2296 4027 c3 -10 9 -15 12 -12 3 3 0 11 -7 18 -10 9 -11 8 -5 -6z"/>
<path d="M2350 3994 c0 -14 4 -23 9 -20 5 3 7 15 4 26 -7 28 -13 25 -13 -6z"/>
<path d="M3127 4009 c7 -7 15 -10 18 -7 3 3 -2 9 -12 12 -14 6 -15 5 -6 -5z"/>
<path d="M2266 3991 c22 -52 47 -147 60 -229 21 -130 24 -136 82 -127 26 4 50
10 54 14 4 4 3 22 -2 41 -6 19 -9 46 -7 60 2 14 2 19 0 13 -8 -24 -18 -13 -39
43 -22 55 -22 55 -1 37 20 -18 20 -17 15 10 -4 19 -1 27 9 27 12 0 14 -10 12
-44 -4 -42 7 -54 28 -31 4 4 2 5 -4 1 -9 -5 -13 0 -13 13 0 12 5 21 10 21 6 0
10 5 10 11 0 5 -4 7 -10 4 -5 -3 -10 1 -10 10 0 12 5 15 22 9 21 -6 21 -6 5
10 -9 10 -30 21 -47 26 -26 7 -30 6 -30 -10 0 -14 -5 -18 -17 -13 -11 4 -14 3
-9 -5 4 -7 5 -12 2 -12 -3 0 -22 27 -42 60 -25 41 -42 59 -52 55 -9 -3 -12 0
-9 8 3 8 -1 14 -9 14 -10 0 -12 -6 -8 -16z"/>
<path d="M2420 3950 c0 -18 3 -20 14 -11 10 8 16 9 21 1 9 -15 25 -12 25 5 0
8 -6 15 -14 15 -8 0 -21 3 -30 6 -12 4 -16 0 -16 -16z"/>
<path d="M2361 3951 c-11 -7 -11 -13 3 -32 l17 -24 -7 29 c-6 24 -4 28 9 23 9
-3 19 -2 22 3 8 12 -25 13 -44 1z"/>
<path d="M2510 3920 c0 -22 5 -40 10 -40 6 0 10 18 10 40 0 22 -4 40 -10 40
-5 0 -10 -18 -10 -40z"/>
<path d="M4835 3830 c-3 -5 -1 -10 4 -10 6 0 11 5 11 10 0 6 -2 10 -4 10 -3 0
-8 -4 -11 -10z"/>
<path d="M4743 3736 c-28 -29 -30 -46 -3 -21 11 10 20 13 20 7 0 -13 -28 -42
-41 -42 -5 0 -9 -5 -9 -11 0 -6 14 -1 30 11 17 12 30 29 28 39 -1 9 1 22 5 29
14 21 -7 13 -30 -12z"/>
<path d="M2590 3710 c-9 -6 -10 -10 -3 -10 6 0 19 -3 29 -7 11 -4 15 -3 10 5
-4 7 6 12 26 15 31 3 30 4 -7 5 -22 1 -47 -3 -55 -8z"/>
<path d="M2728 3713 c7 -3 16 -2 19 1 4 3 -2 6 -13 5 -11 0 -14 -3 -6 -6z"/>
<path d="M2780 3710 c-23 -7 -23 -8 -3 -9 12 -1 25 4 28 9 3 6 5 10 3 9 -2 -1
-14 -5 -28 -9z"/>
<path d="M2830 3700 c8 -5 20 -10 25 -10 6 0 3 5 -5 10 -8 5 -19 10 -25 10 -5
0 -3 -5 5 -10z"/>
<path d="M2499 3689 c-10 -6 -7 -9 14 -9 29 0 35 5 14 13 -8 3 -20 1 -28 -4z"/>
<path d="M4556 3588 c2 -3 -2 -9 -8 -11 -9 -4 -8 -6 2 -6 8 0 26 6 39 13 l24
13 -31 -1 c-16 0 -28 -4 -26 -8z"/>
<path d="M4470 3558 c0 -4 14 -8 30 -8 17 0 30 2 30 4 0 2 -13 6 -30 8 -16 3
-30 1 -30 -4z"/>
<path d="M4778 3516 c-23 -32 -137 -84 -223 -103 -44 -9 -103 -13 -157 -11
-103 5 -104 -9 -5 -41 141 -46 219 -46 291 -2 52 32 126 131 126 167 0 21 -13
16 -32 -10z"/>
<path d="M4038 2913 c7 -3 16 -2 19 1 4 3 -2 6 -13 5 -11 0 -14 -3 -6 -6z"/>
<path d="M3797 2883 c-14 -13 -6 -23 18 -23 28 0 34 15 9 24 -19 7 -19 7 -27
-1z"/>
<path d="M3685 2870 c3 -5 12 -10 20 -10 8 0 17 5 20 10 4 6 -5 10 -20 10 -15
0 -24 -4 -20 -10z"/>
<path d="M3608 2863 c12 -2 30 -2 40 0 9 3 -1 5 -23 4 -22 0 -30 -2 -17 -4z"/>
<path d="M3960 2822 c0 -14 6 -22 16 -22 14 0 15 3 3 18 -7 9 -15 19 -16 21
-2 2 -3 -5 -3 -17z"/>
<path d="M4000 2786 c0 -9 5 -16 10 -16 6 0 10 4 10 9 0 6 -4 13 -10 16 -5 3
-10 -1 -10 -9z"/>
<path d="M3830 2770 c0 -5 5 -10 10 -10 6 0 10 5 10 10 0 6 -4 10 -10 10 -5 0
-10 -4 -10 -10z"/>
<path d="M3927 2766 c-4 -10 -1 -13 8 -9 8 3 12 9 9 14 -7 12 -11 11 -17 -5z"/>
<path d="M3940 2724 c0 -14 3 -14 15 -4 8 7 15 14 15 16 0 2 -7 4 -15 4 -8 0
-15 -7 -15 -16z"/>
<path d="M3972 2695 c-19 -19 -20 -24 -7 -29 8 -3 15 -12 15 -21 0 -8 5 -15
10 -15 17 0 11 27 -7 34 -15 6 -13 9 10 25 15 10 24 21 20 24 -9 10 -15 7 -41
-18z"/>
<path d="M3490 2615 c0 -8 -4 -15 -10 -15 -5 0 -10 -7 -10 -15 0 -8 7 -15 15
-15 10 0 15 10 15 30 0 17 -2 30 -5 30 -3 0 -5 -7 -5 -15z"/>
<path d="M3911 2620 c-1 -32 14 -37 39 -14 21 20 22 24 7 24 -10 0 -21 -8 -24
-17 -6 -15 -7 -15 -14 3 -5 13 -8 14 -8 4z"/>
<path d="M3860 2565 c0 -8 5 -15 10 -15 6 0 10 7 10 15 0 8 -4 15 -10 15 -5 0
-10 -7 -10 -15z"/>
<path d="M3870 2480 c0 -5 5 -10 10 -10 6 0 10 5 10 10 0 6 -4 10 -10 10 -5 0
-10 -4 -10 -10z"/>
<path d="M3905 2450 c-3 -5 -1 -10 4 -10 6 0 11 5 11 10 0 6 -2 10 -4 10 -3 0
-8 -4 -11 -10z"/>
<path d="M1393 6473 c9 -3 15 -9 12 -14 -4 -5 3 -9 14 -9 11 0 23 5 26 11 4 6
14 7 24 4 28 -12 81 -14 87 -3 5 7 -4 9 -25 6 -17 -2 -31 -1 -31 3 0 4 -28 7
-62 6 -35 0 -55 -2 -45 -4z"/>
<path d="M1340 6460 c8 -5 24 -10 34 -10 26 0 18 6 -19 14 -22 5 -26 4 -15 -4z"/>
<path d="M1431 6445 c-21 -12 -22 -13 -5 -18 11 -3 33 -4 49 -3 17 2 39 4 50
5 15 1 17 3 6 10 -7 5 -21 6 -31 4 -10 -3 -21 0 -24 6 -9 13 -14 13 -45 -4z"/>
<path d="M1566 6451 c-4 -5 3 -7 14 -4 23 6 26 13 6 13 -8 0 -17 -4 -20 -9z"/>
<path d="M1355 6410 c-3 -5 -2 -17 3 -26 7 -12 11 -13 17 -5 5 9 12 8 25 -4
15 -14 21 -14 39 -3 28 17 26 23 -6 25 -15 0 -29 6 -31 12 -5 14 -39 14 -47 1z"/>
<path d="M1240 6369 c0 -5 5 -7 10 -4 6 3 10 8 10 11 0 2 -4 4 -10 4 -5 0 -10
-5 -10 -11z"/>
<path d="M1200 6355 c-7 -8 -9 -22 -5 -32 5 -12 9 -14 12 -5 3 6 12 12 21 11
11 0 12 -2 4 -6 -6 -2 -10 -9 -6 -14 3 -5 1 -9 -4 -9 -6 0 -12 -7 -15 -14 -4
-10 -1 -13 8 -10 8 3 17 14 20 24 5 14 14 18 36 15 16 -2 27 0 24 6 -4 5 4 13
17 18 l23 10 -23 0 c-13 1 -20 5 -17 11 4 6 -1 7 -11 3 -11 -4 -13 -8 -6 -11
9 -3 8 -7 -1 -17 -10 -11 -16 -11 -35 1 -12 8 -28 12 -35 7 -8 -4 -7 -1 2 10
7 9 11 17 8 17 -2 0 -10 -7 -17 -15z"/>
<path d="M1090 6285 c7 -8 19 -15 27 -15 8 0 13 -6 11 -12 -3 -7 -10 -13 -16
-13 -33 0 -58 -97 -28 -108 19 -7 26 1 26 31 0 21 -2 22 -15 12 -19 -16 -21 4
-3 24 11 11 15 11 24 -3 10 -13 11 -12 7 10 -3 16 1 30 13 40 15 13 16 12 10
-9 -6 -17 -4 -21 9 -16 10 4 13 13 9 27 -5 16 -3 19 11 13 15 -5 16 -4 5 9
-14 16 -45 21 -35 5 3 -5 2 -10 -4 -10 -5 0 -13 5 -16 10 -4 6 -11 8 -16 5 -5
-4 -9 -1 -9 4 0 6 -5 11 -11 11 -8 0 -8 -5 1 -15z"/>
<path d="M993 6207 c-3 -6 -1 -7 6 -3 17 11 23 -17 11 -50 -8 -21 -8 -26 0
-18 6 6 13 26 16 46 5 28 3 35 -10 35 -9 0 -20 -5 -23 -10z"/>
<path d="M1039 6119 c0 -2 -3 -15 -5 -29 -3 -14 -2 -36 1 -49 6 -22 7 -23 20
-5 18 24 18 44 0 68 -8 11 -15 18 -16 15z m18 -61 c-3 -7 -5 -2 -5 12 0 14 2
19 5 13 2 -7 2 -19 0 -25z"/>
<path d="M1070 6115 c0 -5 5 -17 10 -25 5 -8 10 -10 10 -5 0 6 -5 17 -10 25
-5 8 -10 11 -10 5z"/>
<path d="M1054 6009 c-3 -6 -1 -16 5 -22 8 -8 11 -5 11 11 0 24 -5 28 -16 11z"/>
<path d="M1002 5990 c0 -14 2 -19 5 -12 2 6 2 18 0 25 -3 6 -5 1 -5 -13z"/>
<path d="M1025 5987 c-4 -10 -5 -21 -1 -24 10 -10 18 4 13 24 -4 17 -4 17 -12
0z"/>
<path d="M1057 5899 c4 -13 8 -18 11 -10 2 7 -1 18 -6 23 -8 8 -9 4 -5 -13z"/>
<path d="M1070 5821 c0 -25 6 -27 13 -6 4 8 2 17 -3 20 -6 4 -10 -3 -10 -14z"/>
<path d="M826 5568 c3 -5 10 -6 15 -3 13 9 11 12 -6 12 -8 0 -12 -4 -9 -9z"/>
<path d="M8008 5383 c6 -2 18 -2 25 0 6 3 1 5 -13 5 -14 0 -19 -2 -12 -5z"/>
<path d="M6805 5350 c-3 -5 -4 -10 -1 -10 2 0 11 -3 20 -6 11 -4 16 -1 16 10
0 18 -25 22 -35 6z"/>
<path d="M8200 5351 l-25 -7 26 -5 c17 -4 26 -1 26 8 0 7 -1 13 -1 12 -1 -1
-12 -4 -26 -8z"/>
<path d="M8018 5343 c6 -2 18 -2 25 0 6 3 1 5 -13 5 -14 0 -19 -2 -12 -5z"/>
<path d="M8088 5343 c6 -2 18 -2 25 0 6 3 1 5 -13 5 -14 0 -19 -2 -12 -5z"/>
<path d="M8130 5336 c0 -2 7 -7 16 -10 8 -3 12 -2 9 4 -6 10 -25 14 -25 6z"/>
<path d="M7200 5320 c0 -5 9 -10 20 -10 11 0 20 5 20 10 0 6 -9 10 -20 10 -11
0 -20 -4 -20 -10z"/>
<path d="M7510 5320 c20 -13 33 -13 25 0 -3 6 -14 10 -23 10 -15 0 -15 -2 -2
-10z"/>
<path d="M8188 5323 c6 -2 9 -10 6 -15 -4 -7 -2 -8 5 -4 13 9 5 26 -12 25 -9
0 -8 -2 1 -6z"/>
<path d="M7643 5293 c9 -2 23 -2 30 0 6 3 -1 5 -18 5 -16 0 -22 -2 -12 -5z"/>
<path d="M7963 5283 c9 -2 23 -2 30 0 6 3 -1 5 -18 5 -16 0 -22 -2 -12 -5z"/>
<path d="M8085 5280 c73 -11 164 -42 221 -75 26 -15 45 -21 49 -15 3 5 11 10
17 10 7 0 7 -4 0 -13 -9 -10 -1 -22 34 -51 47 -39 63 -42 45 -8 -6 11 -9 21
-8 23 1 2 0 3 -2 2 -7 -4 -31 19 -31 29 0 5 6 6 13 2 6 -4 3 2 -7 14 -21 24
-32 29 -20 10 5 -8 2 -9 -10 -5 -10 4 -21 7 -24 7 -4 0 -1 4 7 9 9 6 5 9 -13
9 -25 0 -25 -1 -9 -15 16 -13 15 -13 -7 -1 -54 31 -181 69 -246 73 l-69 4 60
-9z m322 -107 c1 -26 0 -27 -13 -8 -11 15 -11 20 -1 27 6 4 12 8 12 8 0 0 1
-12 2 -27z m34 -45 c11 -21 11 -22 -4 -9 -10 7 -17 17 -17 22 0 15 9 10 21
-13z"/>
<path d="M8200 5280 c8 -5 22 -9 30 -9 10 0 8 3 -5 9 -27 12 -43 12 -25 0z"/>
<path d="M8313 5283 c15 -4 21 -15 18 -35 -2 -15 17 -8 23 8 3 8 2 12 -4 9 -6
-3 -10 -2 -10 4 0 5 6 11 13 14 6 2 -4 4 -23 4 -19 0 -27 -2 -17 -4z"/>
<path d="M7311 3095 c0 -131 -5 -215 -15 -271 -55 -280 -217 -542 -481 -776
-204 -182 -797 -636 -1243 -952 -123 -87 -222 -159 -220 -160 2 0 606 1 1343
4 l1340 5 57 23 c112 45 204 141 240 250 16 50 18 92 17 441 -1 212 -4 373 -6
356 -3 -16 -9 -32 -13 -35 -5 -3 -10 -57 -11 -120 -1 -69 -7 -118 -13 -123 -8
-6 -8 -10 0 -13 13 -5 -3 -74 -19 -85 -5 -4 -7 -12 -3 -17 4 -6 -3 -16 -14
-22 -11 -6 -20 -17 -20 -25 0 -9 -6 -12 -15 -9 -21 8 -19 -12 4 -35 29 -29 36
-59 14 -57 -15 1 -17 -6 -15 -35 3 -37 -20 -71 -33 -49 -3 5 1 10 9 10 21 0
20 12 -2 31 -12 10 -30 14 -50 11 -33 -4 -42 -16 -19 -25 9 -4 8 -8 -3 -16 -8
-6 -10 -11 -5 -11 6 0 16 5 23 12 9 9 15 9 23 1 14 -14 2 -53 -17 -53 -8 0
-17 -7 -21 -16 -4 -10 -13 -14 -27 -10 -25 6 -51 -7 -42 -22 8 -13 -12 -27
-39 -27 -11 0 -25 -11 -32 -25 l-13 -25 -6 23 c-7 26 -31 24 -26 -2 3 -18 -6
-20 -28 -6 -11 7 -11 10 -2 10 7 0 10 5 7 11 -5 7 -12 6 -23 -3 -26 -21 -72
-39 -72 -28 0 6 -18 10 -40 10 -22 0 -40 -4 -40 -9 0 -15 -72 -24 -80 -10 -4
6 -13 8 -19 5 -6 -4 -39 -10 -74 -12 -34 -3 -63 -9 -65 -15 -6 -16 -22 -10
-22 10 0 25 -46 54 -87 55 -17 1 -35 5 -39 8 -4 4 -16 2 -27 -3 -14 -8 -26 -8
-42 -1 -28 13 -41 -8 -24 -40 18 -34 -10 -17 -29 17 -9 17 -20 32 -24 33 -5 2
-8 15 -8 28 0 13 -4 24 -10 24 -5 0 -10 -4 -10 -10 0 -5 -9 -10 -20 -10 -18 0
-19 3 -10 20 6 12 7 20 1 20 -5 0 -17 3 -25 6 -12 5 -15 2 -10 -11 5 -11 1
-21 -10 -27 -9 -5 -13 -14 -10 -20 5 -7 1 -9 -9 -5 -11 4 -17 1 -17 -8 0 -8
-7 -15 -15 -15 -25 0 -30 -1 -43 -12 -7 -6 -10 -19 -6 -30 5 -17 4 -18 -14 -7
-12 7 -19 17 -16 21 3 4 -2 5 -11 2 -13 -5 -12 -9 6 -25 24 -20 19 -40 -4 -20
-11 8 -19 6 -37 -9 -13 -11 -31 -20 -42 -20 -10 0 -18 -4 -18 -10 0 -5 -7 -10
-15 -10 -8 0 -15 -4 -15 -10 0 -5 -4 -10 -10 -10 -5 0 -19 -9 -30 -20 -11 -11
-16 -20 -12 -20 4 0 7 -12 6 -27 -1 -27 -2 -27 -65 -29 -88 -2 -89 -3 -89 -14
0 -7 6 -7 20 0 18 9 20 8 20 -16 0 -27 -11 -29 -65 -9 -14 5 -16 4 -7 -3 20
-14 -46 -42 -98 -42 -37 0 -41 2 -30 15 7 9 28 23 46 31 19 9 32 19 29 23 -2
4 26 39 63 77 194 201 293 311 354 390 12 16 25 31 28 34 14 14 94 124 140
195 68 104 200 376 239 490 116 346 100 692 -49 1000 l-38 80 -1 -190z m1026
-1172 c-3 -10 -5 -4 -5 12 0 17 2 24 5 18 2 -7 2 -21 0 -30z m0 -105 c-2 -13
-4 -3 -4 22 0 25 2 35 4 23 2 -13 2 -33 0 -45z m-180 -524 c-3 -3 -12 -4 -19
-1 -8 3 -5 6 6 6 11 1 17 -2 13 -5z m-987 -15 c0 -15 -26 -39 -43 -39 -18 0
-39 -24 -36 -42 4 -34 -2 -41 -14 -18 -18 34 -27 71 -16 64 5 -3 9 1 10 8 0
10 2 10 6 1 6 -15 33 -17 33 -3 0 6 7 10 16 10 10 0 14 6 10 15 -4 10 1 15 14
15 11 0 20 -5 20 -11z m26 -55 c-4 -14 -16 -35 -27 -47 -17 -18 -21 -19 -29
-7 -10 16 -3 33 11 24 5 -3 8 -2 7 3 -2 8 32 53 40 53 2 0 1 -12 -2 -26z m34
6 c0 -5 -4 -10 -10 -10 -5 0 -10 5 -10 10 0 6 5 10 10 10 6 0 10 -4 10 -10z
m244 -6 c10 -26 7 -34 -14 -34 -15 0 -20 7 -20 25 0 28 24 34 34 9z m-118 -41
c-10 -10 -19 5 -10 18 6 11 8 11 12 0 2 -7 1 -15 -2 -18z m297 10 c-7 -2 -19
-2 -25 0 -7 3 -2 5 12 5 14 0 19 -2 13 -5z m-663 -23 c0 -5 -10 -10 -22 -10
-19 0 -20 2 -8 10 19 13 30 13 30 0z m-45 -20 c3 -5 1 -10 -6 -10 -6 0 -18 -8
-25 -17 -18 -26 -26 -11 -8 15 16 24 29 28 39 12z m-72 -50 c-3 -11 -9 -17
-14 -14 -5 3 -9 0 -9 -6 0 -6 -4 -9 -10 -5 -5 3 -2 14 8 25 22 24 31 25 25 0z
m-113 -91 c0 -5 -4 -9 -10 -9 -5 0 -10 7 -10 16 0 8 5 12 10 9 6 -3 10 -10 10
-16z m1275 -29 c3 -6 -1 -7 -9 -4 -18 7 -21 14 -7 14 6 0 13 -4 16 -10z"/>
<path d="M7480 1600 c0 -19 3 -21 12 -12 9 9 9 15 0 24 -9 9 -12 7 -12 -12z"/>
<path d="M7406 1564 c-6 -16 2 -18 22 -5 11 7 11 9 -1 14 -9 3 -18 -1 -21 -9z"/>
<path d="M8198 1498 c-40 -23 -49 -38 -23 -38 8 0 15 5 15 10 0 6 11 10 25 10
18 0 25 5 25 20 0 24 3 24 -42 -2z"/>
<path d="M7405 1499 c-10 -15 3 -25 16 -12 7 7 7 13 1 17 -6 3 -14 1 -17 -5z"/>
<path d="M7293 1452 c-27 -27 -28 -32 -8 -32 8 0 15 -4 15 -9 0 -5 7 -11 15
-15 8 -3 14 -2 13 2 -1 4 2 15 7 26 4 10 4 21 -2 25 -6 3 -12 11 -14 16 -2 6
-14 0 -26 -13z"/>
<path d="M7350 1460 c0 -5 5 -10 11 -10 5 0 7 5 4 10 -3 6 -8 10 -11 10 -2 0
-4 -4 -4 -10z"/>
<path d="M7227 1389 c-15 -18 -26 -33 -24 -35 2 -2 12 5 22 16 17 19 19 19 31
2 12 -16 13 -15 14 6 0 12 0 25 1 29 2 19 -19 10 -44 -18z"/>
<path d="M7790 1390 c0 -5 5 -10 10 -10 6 0 10 5 10 10 0 6 -4 10 -10 10 -5 0
-10 -4 -10 -10z"/>
<path d="M8160 1390 c0 -5 5 -10 10 -10 6 0 10 5 10 10 0 6 -4 10 -10 10 -5 0
-10 -4 -10 -10z"/>
<path d="M7326 1372 c-4 -7 0 -15 8 -18 9 -3 14 -10 11 -14 -6 -10 -75 -7 -92
3 -19 12 -24 -10 -6 -24 10 -9 18 -10 20 -3 2 5 17 9 35 8 17 -1 40 1 50 5 19
7 19 7 0 31 -13 16 -21 20 -26 12z"/>
<path d="M7050 1289 c0 -5 5 -7 10 -4 6 3 10 8 10 11 0 2 -4 4 -10 4 -5 0 -10
-5 -10 -11z"/>
<path d="M7825 1290 c3 -5 8 -10 11 -10 2 0 4 5 4 10 0 6 -5 10 -11 10 -5 0
-7 -4 -4 -10z"/>
<path d="M7616 1263 c-12 -12 -5 -23 14 -23 11 0 20 4 20 9 0 11 -26 22 -34
14z"/>
<path d="M6100 4225 c0 -8 2 -15 4 -15 2 0 6 7 10 15 3 8 1 15 -4 15 -6 0 -10
-7 -10 -15z"/>
<path d="M6126 4213 c-6 -14 -5 -15 5 -6 7 7 10 15 7 18 -3 3 -9 -2 -12 -12z"/>
<path d="M6054 4169 c-3 -6 -2 -15 3 -20 5 -5 9 -1 9 11 0 23 -2 24 -12 9z"/>
<path d="M6047 4120 c6 -23 24 -22 31 1 3 8 1 11 -3 7 -5 -4 -14 -3 -21 3 -9
8 -11 5 -7 -11z"/>
<path d="M6100 4084 c0 -8 5 -12 10 -9 6 4 8 11 5 16 -9 14 -15 11 -15 -7z"/>
<path d="M6297 4093 c-3 -5 -1 -17 4 -28 7 -17 8 -17 8 8 1 27 -4 34 -12 20z"/>
<path d="M6173 4083 c9 -2 25 -2 35 0 9 3 1 5 -18 5 -19 0 -27 -2 -17 -5z"/>
<path d="M6402 4050 c0 -14 2 -19 5 -12 2 6 2 18 0 25 -3 6 -5 1 -5 -13z"/>
<path d="M6251 4053 c-1 -8 -17 -13 -46 -13 -56 0 -59 -17 -5 -22 49 -4 64 3
57 28 -3 11 -5 13 -6 7z"/>
<path d="M6050 4039 c0 -5 5 -7 10 -4 6 3 10 8 10 11 0 2 -4 4 -10 4 -5 0 -10
-5 -10 -11z"/>
<path d="M6117 4043 c-13 -12 -7 -23 13 -23 11 0 20 7 20 15 0 15 -21 21 -33
8z"/>
<path d="M6020 4010 c0 -5 5 -10 10 -10 6 0 10 5 10 10 0 6 -4 10 -10 10 -5 0
-10 -4 -10 -10z"/>
<path d="M6387 4013 c-4 -3 -7 -11 -7 -17 0 -6 5 -5 12 2 6 6 9 14 7 17 -3 3
-9 2 -12 -2z"/>
<path d="M5874 3993 c-12 -20 -8 -43 7 -43 6 0 7 5 3 12 -5 7 -2 9 7 6 10 -4
15 1 16 16 0 11 -1 15 -4 9 -3 -7 -9 -13 -14 -13 -4 0 -6 7 -3 15 8 20 1 19
-12 -2z"/>
<path d="M5940 3990 c0 -5 7 -10 15 -10 8 0 15 5 15 10 0 6 -7 10 -15 10 -8 0
-15 -4 -15 -10z"/>
<path d="M5980 3950 c-12 -8 -11 -10 7 -10 12 0 25 5 28 10 8 13 -15 13 -35 0z"/>
<path d="M6100 3950 c0 -5 5 -10 10 -10 6 0 10 5 10 10 0 6 -4 10 -10 10 -5 0
-10 -4 -10 -10z"/>
<path d="M5909 3928 c-7 -24 -8 -88 -1 -88 13 0 23 27 16 45 -4 8 -1 15 5 15
6 0 11 7 11 15 0 12 -28 23 -31 13z"/>
<path d="M5965 3870 c3 -5 8 -10 11 -10 2 0 4 5 4 10 0 6 -5 10 -11 10 -5 0
-7 -4 -4 -10z"/>
<path d="M5604 3748 c-10 -13 -12 -18 -5 -11 7 6 20 9 27 6 10 -4 12 0 8 11
-8 20 -7 20 -30 -6z"/>
<path d="M1916 3465 c-9 -23 -8 -25 9 -25 17 0 19 9 6 28 -7 11 -10 10 -15 -3z"/>
<path d="M2011 3464 c-7 -8 -11 -17 -9 -20 3 -2 13 5 23 16 10 11 14 20 9 20
-5 -1 -15 -8 -23 -16z"/>
<path d="M1810 3420 c0 -5 5 -10 10 -10 6 0 10 5 10 10 0 6 -4 10 -10 10 -5 0
-10 -4 -10 -10z"/>
<path d="M2930 3283 c0 -21 3 -24 9 -14 5 8 7 20 4 28 -8 21 -13 15 -13 -14z"/>
<path d="M2885 3214 c-62 -55 -132 -83 -287 -113 -99 -20 -85 -28 17 -10 33 6
69 12 80 13 11 2 21 5 23 6 1 1 5 3 10 5 4 1 20 7 35 13 16 7 33 12 39 12 16
0 97 61 113 87 20 30 18 29 -30 -13z"/>
<path d="M1479 3183 c-13 -16 -12 -17 4 -4 9 7 17 15 17 17 0 8 -8 3 -21 -13z"/>
<path d="M2350 3073 c-14 -2 -104 -8 -200 -13 l-175 -9 200 6 c110 3 229 9
265 13 l65 7 -65 0 c-36 0 -76 -2 -90 -4z"/>
<path d="M1888 3043 c6 -2 18 -2 25 0 6 3 1 5 -13 5 -14 0 -19 -2 -12 -5z"/>
<path d="M2270 2792 c0 -4 9 -8 20 -9 11 -1 20 2 20 8 0 5 -9 9 -20 9 -11 0
-20 -4 -20 -8z"/>
<path d="M2741 2716 c2 -2 27 -6 54 -9 34 -4 42 -3 25 3 -25 8 -87 13 -79 6z"/>
<path d="M2865 2510 c-16 -7 -17 -9 -3 -9 9 -1 20 4 23 9 7 11 7 11 -20 0z"/>
<path d="M2365 2331 c-6 -11 26 -31 50 -31 9 0 13 5 10 10 -4 6 6 11 22 11
l28 1 -30 8 c-44 11 -73 11 -80 1z"/>
<path d="M2285 2270 c3 -5 17 -10 31 -10 13 0 24 5 24 10 0 6 -14 10 -31 10
-17 0 -28 -4 -24 -10z"/>
<path d="M2405 2241 c-3 -5 -1 -12 5 -16 5 -3 10 1 10 9 0 18 -6 21 -15 7z"/>
<path d="M2108 2193 c7 -3 16 -2 19 1 4 3 -2 6 -13 5 -11 0 -14 -3 -6 -6z"/>
<path d="M2150 2183 c0 -11 3 -14 8 -7 4 6 14 14 22 17 10 4 8 6 -7 6 -16 1
-23 -5 -23 -16z"/>
<path d="M2238 2193 c18 -2 45 -2 60 0 15 2 0 4 -33 4 -33 0 -45 -2 -27 -4z"/>
<path d="M5300 3371 c0 -17 5 -33 10 -36 6 -4 10 8 10 29 0 20 -4 36 -10 36
-5 0 -10 -13 -10 -29z"/>
<path d="M5265 3346 c-5 -12 -3 -21 6 -27 11 -7 12 -12 2 -29 -14 -22 -17 -50
-5 -50 8 0 32 49 32 67 0 7 -4 13 -9 13 -5 0 -11 10 -14 23 -3 20 -4 20 -12 3z"/>
<path d="M4995 3240 c-3 -5 -1 -18 4 -27 9 -16 10 -16 11 4 0 12 6 24 13 26 7
3 6 6 -5 6 -9 1 -20 -3 -23 -9z"/>
<path d="M5189 3240 c-11 -7 -10 -10 4 -16 10 -4 23 -2 28 3 14 14 -13 24 -32
13z"/>
<path d="M5052 3220 c8 -12 24 -20 40 -20 21 0 28 5 28 20 0 17 -7 20 -40 20
-38 0 -39 -1 -28 -20z"/>
<path d="M5041 3174 c0 -11 3 -14 6 -6 3 7 2 16 -1 19 -3 4 -6 -2 -5 -13z"/>
<path d="M5098 3163 c7 -3 16 -2 19 1 4 3 -2 6 -13 5 -11 0 -14 -3 -6 -6z"/>
<path d="M4900 3149 c0 -5 5 -7 10 -4 6 3 10 8 10 11 0 2 -4 4 -10 4 -5 0 -10
-5 -10 -11z"/>
<path d="M4750 3100 c0 -5 5 -10 10 -10 6 0 10 5 10 10 0 6 -4 10 -10 10 -5 0
-10 -4 -10 -10z"/>
<path d="M4735 3070 c3 -5 10 -10 16 -10 5 0 9 5 9 10 0 6 -7 10 -16 10 -8 0
-12 -4 -9 -10z"/>
<path d="M7595 9140 c96 -104 163 -210 211 -334 13 -34 23 -54 23 -46 0 8 -10
41 -23 73 -27 64 -9 62 24 -4 21 -40 47 -56 64 -38 8 9 8 10 -1 5 -7 -4 -13
-2 -13 3 0 6 4 11 10 11 5 0 7 7 4 15 -6 14 -8 13 -21 -2 -14 -17 -14 -17 -10
5 3 14 0 22 -8 22 -9 0 -12 8 -10 23 4 17 -15 47 -73 117 -43 52 -94 107 -113
121 -120 89 -119 89 -64 29z"/>
<path d="M7825 9020 c21 -22 41 -40 44 -40 3 0 -13 18 -34 40 -21 22 -41 40
-44 40 -3 0 13 -18 34 -40z"/>
<path d="M7920 8901 c22 -36 43 -67 47 -70 14 -13 -41 78 -63 105 -14 16 -6 0
16 -35z"/>
<path d="M7856 8761 c-4 -7 -5 -15 -2 -18 9 -9 19 4 14 18 -4 11 -6 11 -12 0z"/>
<path d="M7885 8750 c3 -5 8 -10 11 -10 2 0 4 5 4 10 0 6 -5 10 -11 10 -5 0
-7 -4 -4 -10z"/>
<path d="M7831 8724 c0 -11 3 -14 6 -6 3 7 2 16 -1 19 -3 4 -6 -2 -5 -13z"/>
<path d="M7840 8656 c0 -14 4 -27 8 -30 5 -3 6 8 4 25 -5 35 -12 38 -12 5z"/>
<path d="M7973 8260 c-1 -11 2 -18 8 -15 11 7 12 35 1 35 -4 0 -8 -9 -9 -20z"/>
<path d="M7976 8185 c4 -8 8 -15 10 -15 2 0 4 7 4 15 0 8 -4 15 -10 15 -5 0
-7 -7 -4 -15z"/>
<path d="M8001 8184 c0 -11 3 -14 6 -6 3 7 2 16 -1 19 -3 4 -6 -2 -5 -13z"/>
<path d="M340 6307 c0 -50 26 -121 63 -176 18 -26 41 -66 51 -89 l20 -43 23
63 24 63 -28 19 c-47 34 -97 92 -126 147 l-27 53 0 -37z"/>
<path d="M8710 5667 c0 -2 25 -21 55 -41 168 -111 335 -325 386 -494 6 -23 14
-40 17 -38 7 8 -29 119 -60 180 -71 140 -211 286 -360 375 -21 13 -38 21 -38
18z"/>
<path d="M8806 5524 c82 -81 225 -278 180 -248 -13 8 -43 43 -67 77 -49 69
-74 97 -89 97 -5 0 -10 4 -10 9 0 5 -16 21 -37 37 l-36 27 43 -54 c24 -30 48
-52 54 -51 6 2 8 1 4 -3 -4 -4 8 -37 26 -74 19 -36 42 -91 52 -121 18 -53 19
-134 22 -2030 3 -2147 5 -2059 -53 -2205 -50 -127 -113 -222 -220 -330 -112
-113 -190 -169 -303 -216 -156 -65 -87 -61 -1156 -70 -538 -5 -981 -11 -984
-14 -12 -12 11 -15 143 -18 92 -3 140 -8 143 -16 6 -17 30 -13 35 7 3 12 5 10
6 -7 1 -22 4 -23 41 -18 30 4 40 2 40 -9 0 -8 -10 -14 -26 -14 -14 0 -23 -4
-19 -10 3 -5 -3 -10 -14 -10 -12 0 -21 -4 -21 -10 0 -5 6 -10 13 -10 8 0 24
-11 37 -25 19 -21 21 -25 8 -30 -9 -4 -22 -6 -29 -4 -50 6 -289 -2 -284 -11 3
-6 -4 -10 -17 -10 -18 0 -20 2 -8 10 11 7 4 10 -25 9 -31 0 -36 -2 -20 -9 18
-8 17 -9 -8 -9 -16 -1 -26 3 -22 9 3 5 -1 10 -10 10 -9 0 -13 -4 -10 -10 3 -5
-1 -10 -10 -10 -10 0 -13 5 -9 13 6 9 4 9 -8 -1 -10 -8 -26 -10 -42 -6 -16 4
-26 2 -26 -5 0 -15 -27 -14 -33 2 -4 9 -8 8 -16 -3 -10 -13 -12 -13 -21 0 -7
10 -12 11 -17 4 -5 -7 -74 -11 -188 -13 -99 -1 -181 -4 -183 -6 -3 -3 1556
-15 2278 -18 358 -1 414 0 484 16 184 42 295 106 447 257 162 160 244 296 316
526 l28 89 3 1980 c2 1928 1 2067 -27 2085 -4 3 -26 44 -48 91 -39 83 -112
193 -122 184 -2 -3 5 -15 16 -28 38 -43 85 -128 103 -189 14 -45 3 -32 -31 35
-71 141 -212 320 -314 400 -22 17 -4 -5 41 -49z m88 -170 c3 -8 2 -12 -4 -9
-6 3 -10 10 -10 16 0 14 7 11 14 -7z m-2179 -5064 c3 -5 24 -10 46 -10 32 0
39 -4 39 -19 0 -11 9 -21 21 -24 13 -4 18 -10 13 -18 -5 -9 -15 -4 -34 18 -19
20 -40 32 -69 37 -25 4 -40 3 -37 -3 3 -5 -5 -11 -19 -13 -14 -3 -25 -1 -25 3
0 5 7 9 15 9 8 0 15 7 15 15 0 17 25 20 35 5z m145 -30 c0 -5 -5 -10 -11 -10
-5 0 -7 5 -4 10 3 6 8 10 11 10 2 0 4 -4 4 -10z m-84 -51 c3 -6 1 -16 -5 -22
-8 -8 -11 -8 -11 2 0 8 -7 10 -22 6 -23 -7 -23 -7 -3 9 24 18 32 20 41 5z
m114 1 c0 -5 -7 -10 -16 -10 -8 0 -12 5 -9 10 3 6 10 10 16 10 5 0 9 -4 9 -10z
m-447 -47 c-7 -2 -21 -2 -30 0 -10 3 -4 5 12 5 17 0 24 -2 18 -5z m85 0 c-10
-2 -26 -2 -35 0 -10 3 -2 5 17 5 19 0 27 -2 18 -5z"/>
<path d="M155 4210 c3 -80 7 -212 10 -295 16 -507 183 -1151 408 -1565 109
-201 286 -452 424 -601 23 -25 70 -94 103 -152 230 -407 657 -832 1137 -1136
182 -115 443 -244 460 -227 3 3 0 6 -8 6 -8 1 -3 8 11 16 17 10 18 13 5 9 -11
-4 -29 -9 -40 -12 -17 -4 -18 -3 -5 7 12 9 11 10 -7 5 -26 -7 -70 32 -65 58 4
22 49 23 99 2 31 -13 34 -13 23 0 -7 8 -18 15 -26 15 -7 0 -16 5 -20 12 -4 7
-3 8 4 4 7 -4 12 -3 12 3 0 6 7 8 15 5 8 -4 15 -1 15 5 0 6 -8 11 -17 12 -15
0 -15 2 2 8 17 7 14 10 -21 20 -22 6 -90 31 -150 57 -409 171 -789 454 -1106
824 -211 247 -344 439 -362 527 -5 20 -51 84 -123 170 -235 282 -396 573 -542
980 -121 338 -198 765 -217 1199 -4 82 -11 158 -15 169 -5 11 -6 -44 -4 -125z
m2499 -3816 c20 -19 21 -31 2 -15 -8 7 -16 8 -18 4 -3 -4 -3 -3 -2 4 2 6 -2
14 -9 17 -9 3 -9 5 0 5 6 1 19 -6 27 -15z m-74 -24 c0 -5 -2 -10 -4 -10 -3 0
-8 5 -11 10 -3 6 -1 10 4 10 6 0 11 -4 11 -10z m38 -2 c-2 -6 -10 -14 -16 -16
-7 -2 -10 2 -6 12 7 18 28 22 22 4z m-78 -48 c13 -8 13 -10 -2 -10 -9 0 -20 5
-23 10 -8 13 5 13 25 0z"/>
<path d="M2728 383 c7 -3 16 -2 19 1 4 3 -2 6 -13 5 -11 0 -14 -3 -6 -6z"/>
<path d="M6080 349 c0 -5 5 -7 10 -4 6 3 10 8 10 11 0 2 -4 4 -10 4 -5 0 -10
-5 -10 -11z"/>
<path d="M6136 348 c7 -11 34 -10 34 1 0 6 -9 9 -19 8 -11 0 -17 -5 -15 -9z"/>
<path d="M6190 350 c0 -5 4 -10 9 -10 6 0 13 5 16 10 3 6 -1 10 -9 10 -9 0
-16 -4 -16 -10z"/>
<path d="M6455 310 c-3 -5 -1 -10 4 -10 6 0 11 5 11 10 0 6 -2 10 -4 10 -3 0
-8 -4 -11 -10z"/>
<path d="M6316 264 c-9 -23 -8 -24 15 -24 17 0 19 3 10 14 -9 11 -9 15 1 19 9
4 8 6 -3 6 -9 1 -20 -6 -23 -15z"/>
<path d="M6382 268 c-16 -16 -15 -28 2 -28 7 0 16 9 19 20 6 23 -3 26 -21 8z"/>
<path d="M6480 261 c0 -11 4 -22 10 -26 5 -3 6 -13 3 -22 -4 -11 -3 -14 5 -9
7 4 12 2 12 -3 0 -6 4 -11 9 -11 14 0 -12 83 -27 88 -7 2 -12 -5 -12 -17z"/>
<path d="M6530 271 c0 -18 18 -21 30 -6 10 13 9 15 -9 15 -11 0 -21 -4 -21 -9z"/>
<path d="M6105 250 c4 -6 11 -8 16 -5 14 9 11 15 -7 15 -8 0 -12 -5 -9 -10z"/>
<path d="M6220 250 c0 -5 5 -10 10 -10 6 0 10 5 10 10 0 6 -4 10 -10 10 -5 0
-10 -4 -10 -10z"/>
<path d="M6260 252 c0 -10 21 -32 31 -32 4 0 5 9 2 20 -5 19 -33 29 -33 12z"/>
<path d="M6430 250 c0 -5 7 -10 15 -10 8 0 15 5 15 10 0 6 -7 10 -15 10 -8 0
-15 -4 -15 -10z"/>
<path d="M6170 240 c0 -5 5 -10 10 -10 6 0 10 5 10 10 0 6 -4 10 -10 10 -5 0
-10 -4 -10 -10z"/>
<path d="M6547 219 c4 -13 12 -19 25 -17 21 3 25 23 5 23 -6 0 -17 4 -24 8 -7
5 -9 0 -6 -14z"/>
<path d="M6410 213 c0 -5 16 -8 35 -8 19 0 35 3 35 7 0 4 -16 8 -35 8 -19 0
-35 -3 -35 -7z"/>
<path d="M2828 183 c7 -3 16 -2 19 1 4 3 -2 6 -13 5 -11 0 -14 -3 -6 -6z"/>
<path d="M5578 143 c7 -3 16 -2 19 1 4 3 -2 6 -13 5 -11 0 -14 -3 -6 -6z"/>
</g>
</svg>
